<svg version="1" xmlns="http://www.w3.org/2000/svg" width="682.667" height="682.667" viewBox="0 0 512.000000 512.000000"><path d="M90.1 62.1c-8.6 1.5-19.1 7.1-25.8 13.8C54.1 86 49 98.5 49 113.1v7.7L25 140c-13.2 10.6-24 19.6-24 20 0 .4 10.1 8.8 22.4 18.7 12.4 9.8 22.5 18.1 22.5 18.5.1.4-10.2 9-22.8 19.1l-23 18.4 23 18.3C35.7 263.1 46 271.6 46 272c0 .4-10.3 8.9-22.9 19l-23 18.3 31.2 24.9 31.2 25 2.6 6.4c6.6 16 21.3 28.1 38 31.3 4 .7 39.6-.3 138.9-4l133.5-4.9 36.3 36.3 36.2 36.2V385h3.8c2.1 0 6.3-.7 9.3-1.6 17.1-5 31-19.1 35.3-35.8 1.1-4 3.3-36.4 7.2-106.4 6.2-112.2 6.2-108.2-.3-121.3-6.7-13.4-21.1-24.3-35.8-26.9-5.7-1.1-366.8-32.1-370.3-31.9-.9.1-4.1.5-7.1 1zm185.3 75.1c5.6 1.7 11.9 8.2 13.4 13.8 1.7 6.5 15.5 147.7 14.9 152.9-1.7 15.9-23.6 23.1-35 11.5-5.3-5.3-5.8-7.5-8.8-37.2-1.6-15.7-3.1-28.7-3.3-29-.5-.5-62.8 5.8-63.5 6.4-.2.2.9 13.2 2.4 28.9 3.1 31.9 3 33.6-2.8 40.2-10.9 12.4-31.4 7.9-35.5-7.8-.7-2.4-4.4-37.3-8.3-77.4-7.8-79.5-7.8-78.1-2.4-85.1 5-6.5 16.8-9.4 24.8-6 3.8 1.6 8.3 5.9 10.4 10 1 2 2.6 12.6 4.4 30.1 1.5 14.8 2.8 27 2.8 27 .4.2 63.5-6.6 63.8-6.9.2-.2-.9-12.3-2.3-27-3.1-30.8-3-32.4 4-39.2 6.2-5.9 12.9-7.6 21-5.2zm100.9-.1c8.7 2.4 15.1 11.5 14.9 21.4-.1 10.2-4 16.7-12.5 21-15.7 7.8-33.1-3.2-33-21 .1-15.9 14.4-25.9 30.6-21.4zm-2.5 62c5.5 2.7 9.3 8.4 10 14.7.5 6.1-4.6 84.4-5.9 89.5-1.9 7.3-11.1 13.7-19.5 13.7-4-.1-10.4-3.2-13.8-6.8-5.3-5.7-5.4-7.9-2.4-52.9 1.4-22.4 3-42.7 3.3-45.1.7-5 6.1-11.7 11-13.8 4.6-2 12.2-1.7 17.3.7z"/></svg>