<?xml version="1.0" encoding="UTF-8"?> <svg xmlns="http://www.w3.org/2000/svg" width="105" height="16" viewBox="0 0 105 16" fill="none"> <g clip-path="url(#clip0)"> <path d="M70.7236 2.10639C70.7236 1.17952 71.2668 0.617313 72.3533 0.421681C73.4986 0.210855 76.433 0.104492 78.1994 0.104492C83.2251 0.104492 85.7379 1.7968 85.7379 5.18142C85.7379 6.33621 85.4074 7.31247 84.7483 8.11019C84.0892 8.90791 83.1738 9.5271 81.8518 9.83859L85.0275 13.0029C85.5973 13.6506 85.8442 14.756 84.5964 15.3657C83.5745 15.8652 82.4482 15.5138 81.6239 14.5394L77.8594 10.3324C77.6068 10.3647 74.7882 10.3495 74.264 10.283V14.0779C74.264 14.5166 74.1082 14.8756 73.7987 15.151C73.4891 15.4283 73.1605 15.5651 72.6173 15.5651C72.0551 15.5651 71.4758 15.4264 71.1757 15.151C70.8756 14.8737 70.7236 14.5166 70.7236 14.0779V2.10639ZM81.0598 7.01427C81.7322 6.67429 82.0684 6.12918 82.0684 5.37705C82.0684 4.04561 80.7692 3.37895 78.169 3.37895C77.6961 3.37895 75.2289 3.41503 74.3191 3.48911V7.44732C74.8832 7.49671 77.2782 7.5214 77.9506 7.5214C79.3504 7.5233 80.3874 7.35236 81.0598 7.01427Z" fill="#FF5D6A"></path> <path d="M12.8889 2.05321C12.8889 1.4929 13.0389 1.03136 13.3409 0.666691C13.6429 0.303918 14.0836 0.121582 14.6648 0.121582C15.246 0.121582 15.6923 0.303918 16.0038 0.666691C16.3153 1.02946 16.471 1.491 16.471 2.05321V6.9402C16.471 8.22605 16.3362 9.39034 16.0665 10.4274C15.7968 11.4663 15.3599 12.4141 14.7578 13.2764C14.1557 14.1387 13.3048 14.8072 12.2051 15.284C11.1054 15.7607 9.79677 16 8.2811 16C5.35423 16 3.24217 15.1757 1.94492 13.5252C0.647673 11.8747 0 9.70183 0 7.00287V2.05321C0 1.4929 0.161443 1.03136 0.482431 0.666691C0.805318 0.303918 1.25546 0.121582 1.83666 0.121582C2.43875 0.121582 2.90598 0.303918 3.23837 0.666691C3.57075 1.02946 3.73599 1.491 3.73599 2.05321V7.15862C3.73599 10.8319 5.26116 12.6686 8.31339 12.6686C11.3656 12.6686 12.8908 10.811 12.8908 7.09594V2.05321H12.8889Z" fill="#FF5D6A"></path> <path d="M100.876 2.05321C100.876 1.4929 101.026 1.03136 101.328 0.666691C101.63 0.303918 102.07 0.121582 102.652 0.121582C103.233 0.121582 103.679 0.303918 103.991 0.666691C104.302 1.02946 104.458 1.491 104.458 2.05321V6.9402C104.458 8.22605 104.323 9.39034 104.053 10.4274C103.784 11.4663 103.347 12.4141 102.745 13.2764C102.143 14.1387 101.292 14.8072 100.192 15.284C99.0922 15.7607 97.7836 16 96.2679 16C93.341 16 91.229 15.1757 89.9317 13.5252C88.6345 11.8747 87.9868 9.69993 87.9868 7.00287V2.05321C87.9868 1.4929 88.1483 1.03136 88.4692 0.666691C88.7921 0.303918 89.2423 0.121582 89.8235 0.121582C90.4256 0.121582 90.8928 0.303918 91.2252 0.666691C91.5576 1.02946 91.7228 1.491 91.7228 2.05321V7.15862C91.7228 10.8319 93.248 12.6686 96.3002 12.6686C99.3524 12.6686 100.878 10.811 100.878 7.09594V2.05321H100.876Z" fill="#FF5D6A"></path> <path d="M27.1946 16C24.4292 16 22.2659 15.3144 20.7046 13.9449C19.1434 12.5755 18.3608 10.6553 18.3608 8.18426C18.3608 5.69423 19.1738 3.72652 20.7996 2.28492C22.4254 0.84143 24.6476 0.121582 27.4644 0.121582C29.641 0.121582 31.2915 0.41218 32.4197 0.993377C33.5213 1.55368 33.8404 2.24884 33.3808 3.07885C32.9458 3.82529 32.1006 4.14247 30.8452 3.83098C29.5384 3.51949 28.0816 3.26498 27.2098 3.26498C25.7246 3.26498 24.5603 3.70183 23.7151 4.57362C22.8699 5.44542 22.4482 6.6496 22.4482 8.18616C22.4482 9.63915 22.8889 10.7807 23.7739 11.6107C24.6571 12.4407 25.8157 12.8566 27.2497 12.8566C28.2735 12.8566 29.8727 12.566 31.3067 11.9848C32.5356 11.5081 33.4074 11.6107 33.9183 12.2963C34.5071 13.0845 34.2507 13.8424 33.151 14.5698C31.6619 15.5233 29.6771 16 27.1946 16Z" fill="#FF5D6A"></path> <path d="M57.506 0.51472C57.8688 0.17284 58.3626 0 58.9856 0C59.6086 0 60.1062 0.17094 60.4804 0.51472C60.8546 0.8566 61.0407 1.32004 61.0407 1.90123C61.0407 2.50332 60.8546 2.97056 60.4804 3.30294C60.1062 3.63533 59.6086 3.80057 58.9856 3.80057C58.3626 3.80057 57.8707 3.63913 57.506 3.31814C57.1414 2.99715 56.9609 2.52422 56.9609 1.90123C56.9628 1.31814 57.1433 0.8566 57.506 0.51472Z" fill="#FF5D6A"></path> <path d="M53.7134 0.636302C53.4019 0.294422 52.967 0.121582 52.4048 0.121582C51.8445 0.121582 51.4133 0.292522 51.1132 0.636302C50.8112 0.978182 50.6612 1.40933 50.6612 1.92785V6.14627H40.1313V1.92785C40.1313 1.40933 39.9755 0.978182 39.664 0.636302C39.3526 0.294422 38.9176 0.121582 38.3554 0.121582C37.7951 0.121582 37.364 0.292522 37.0639 0.636302C36.7619 0.978182 36.6118 1.40933 36.6118 1.92785V13.8842C36.6118 14.4027 36.7619 14.8338 37.0639 15.1757C37.364 15.5176 37.7951 15.6885 38.3554 15.6885C38.9157 15.6885 39.3526 15.5176 39.664 15.1757C39.9755 14.8338 40.1313 14.4027 40.1313 13.8842V9.66574H50.6612V13.8842C50.6612 14.4027 50.8112 14.8338 51.1132 15.1757C51.4133 15.5176 51.8445 15.6885 52.4048 15.6885C52.9651 15.6885 53.4019 15.5176 53.7134 15.1757C54.0249 14.8338 54.1807 14.4027 54.1807 13.8842V1.92785C54.1807 1.40933 54.0249 0.978182 53.7134 0.636302Z" fill="#FF5D6A"></path> <path d="M57.2422 7.41125C57.2422 6.89273 57.3922 6.46158 57.6942 6.1197C57.9943 5.77782 58.4255 5.60498 58.9858 5.60498C59.5461 5.60498 59.9829 5.77592 60.2944 6.1197C60.6059 6.46158 60.7617 6.89273 60.7617 7.41125V13.8842C60.7617 14.4027 60.6059 14.8339 60.2944 15.1757C59.9829 15.5176 59.548 15.6905 58.9858 15.6905C58.4255 15.6905 57.9943 15.5195 57.6942 15.1757C57.3922 14.8339 57.2422 14.4027 57.2422 13.8842V7.41125Z" fill="#FF5D6A"></path> <path d="M64.1386 12C64.5222 11.5745 65.0464 11.3618 65.7112 11.3618C66.376 11.3618 66.904 11.5745 67.299 12C67.6941 12.4254 67.8916 12.9402 67.8916 13.5423C67.8916 14.1652 67.6998 14.6781 67.3161 15.0826C66.9325 15.4872 66.3969 15.6904 65.7131 15.6904C65.0293 15.6904 64.4994 15.4872 64.1253 15.0826C63.7511 14.6781 63.565 14.1652 63.565 13.5423C63.5631 12.9383 63.7549 12.4254 64.1386 12Z" fill="#FF5D6A"></path> </g> <defs> <clipPath id="clip0"> <rect width="104.458" height="16" fill="white"></rect> </clipPath> </defs> </svg> 