<?xml version="1.0" encoding="UTF-8"?> <svg xmlns="http://www.w3.org/2000/svg" width="2240" height="1000" viewBox="0 0 2240 1000" fill="none"> <g clip-path="url(#clip0)"> <path d="M1429.9 356.794C1418 376.954 1406.11 397.114 1394.21 417.274C1392.63 419.954 1390.99 422.702 1388.52 424.601C1381.84 429.738 1372.18 426.841 1364.55 423.214C1353.96 418.181 1343.87 412.111 1334.46 405.12C1332.79 403.877 1331.1 402.56 1330.03 400.773C1327.53 396.603 1329.09 391.3 1330.73 386.736C1335.41 373.686 1340.26 360.698 1345.29 347.777C1348.21 340.279 1351.52 332.366 1358.15 327.797C1371.91 318.319 1394.11 326.126 1409.09 328.506C1426.05 331.203 1440.38 338.828 1429.9 356.794Z" fill="#E7B065"></path> <path d="M1343.63 343.924C1387.8 361.543 1437.83 340.151 1455.39 296.144C1472.94 252.137 1451.37 202.179 1407.21 184.56C1363.05 166.94 1313.01 188.332 1295.46 232.339C1277.9 276.346 1299.47 326.304 1343.63 343.924Z" fill="#00B3CB"></path> <path d="M1345.57 339.054C1387.04 355.597 1434.01 335.512 1450.5 294.195C1466.98 252.877 1446.73 205.973 1405.27 189.43C1363.8 172.888 1316.83 192.972 1300.34 234.29C1283.86 275.607 1304.11 322.512 1345.57 339.054Z" fill="#A9DBD4"></path> <path d="M1407.84 449.26C1411.59 450.607 1416.11 452.318 1416.8 456.229C1417.32 459.188 1415.11 462.089 1412.36 463.315C1409.62 464.541 1406.48 464.458 1403.48 464.214C1390.74 463.182 1378.22 459.638 1366.83 453.848C1360.16 450.459 1356.05 445.393 1357.67 437.625C1358.9 431.706 1363.55 424.905 1370.2 425.206C1376.4 425.487 1381.07 431.65 1385.24 435.427C1391.85 441.427 1399.41 446.228 1407.84 449.26Z" fill="#BED0CD"></path> <path d="M1322.73 338.23C1320.61 336.199 1317.37 336.087 1314.44 335.911C1308.63 335.563 1302.86 334.491 1297.31 332.73C1295.1 332.029 1292.75 331.084 1291.57 329.095C1291.09 328.301 1290.86 327.421 1290.73 326.508C1285.53 329.047 1278.95 331.585 1272.57 333.779C1271.82 340.841 1275.88 347.852 1281.45 352.377C1287.23 357.075 1294.43 359.605 1301.47 362.026C1304.3 362.997 1307.27 363.978 1310.22 363.518C1315.92 362.631 1319.35 356.925 1321.99 351.815C1324.23 347.479 1326.27 341.617 1322.73 338.23Z" fill="#BED0CD"></path> <path d="M1322.62 359.406C1322.54 358.887 1322.64 358.357 1322.91 357.907C1323.14 357.428 1323.54 357.049 1324.03 356.841C1324.45 356.639 1324.94 356.643 1325.35 356.853C1325.77 357.068 1326.05 357.473 1326.1 357.935C1326.18 358.454 1326.08 358.985 1325.81 359.435C1325.58 359.913 1325.18 360.292 1324.7 360.5C1324.28 360.702 1323.79 360.698 1323.37 360.488C1322.96 360.269 1322.68 359.866 1322.62 359.406Z" fill="#634F80"></path> <path d="M1324.75 363.187C1324.69 362.541 1325.12 361.951 1325.75 361.794C1326.37 361.68 1326.97 362.092 1327.09 362.715C1327.09 362.728 1327.09 362.742 1327.09 362.756C1327.19 363.412 1326.75 364.028 1326.1 364.149C1325.47 364.263 1324.87 363.851 1324.76 363.228C1324.76 363.215 1324.75 363.201 1324.75 363.187Z" fill="#634F80"></path> <path d="M1326.58 355.316C1326.55 355.141 1326.59 354.961 1326.69 354.819C1326.8 354.668 1326.96 354.562 1327.15 354.522C1327.31 354.491 1327.48 354.531 1327.62 354.632C1327.77 354.73 1327.87 354.886 1327.9 355.062C1327.92 355.249 1327.87 355.437 1327.76 355.588C1327.66 355.737 1327.5 355.838 1327.33 355.867C1327.15 355.915 1326.96 355.877 1326.81 355.766C1326.66 355.661 1326.58 355.494 1326.58 355.316Z" fill="#634F80"></path> <path d="M1320.95 353.759C1320.88 353.202 1321.24 352.685 1321.79 352.571C1322.29 352.453 1322.79 352.759 1322.91 353.256C1322.92 353.298 1322.93 353.341 1322.93 353.384C1322.98 353.653 1322.91 353.927 1322.74 354.141C1322.58 354.362 1322.35 354.515 1322.09 354.571C1321.55 354.653 1321.04 354.293 1320.95 353.759Z" fill="#634F80"></path> <path d="M1323.67 351.041C1323.63 350.773 1323.7 350.502 1323.86 350.284C1324.01 350.058 1324.25 349.902 1324.51 349.854C1325.01 349.736 1325.51 350.042 1325.63 350.538C1325.64 350.581 1325.65 350.623 1325.65 350.667C1325.73 351.223 1325.36 351.741 1324.81 351.854C1324.31 351.972 1323.81 351.666 1323.69 351.169C1323.68 351.127 1323.67 351.084 1323.67 351.041Z" fill="#634F80"></path> <path d="M1321.77 368.663C1321.68 368.293 1321.7 367.905 1321.83 367.547C1321.94 367.176 1322.15 366.843 1322.44 366.584C1322.65 366.359 1322.97 366.27 1323.26 366.355C1323.54 366.459 1323.74 366.706 1323.78 366.998C1323.88 367.36 1323.87 367.744 1323.74 368.097C1323.63 368.467 1323.42 368.8 1323.13 369.059C1322.92 369.285 1322.6 369.373 1322.31 369.288C1322.03 369.189 1321.82 368.951 1321.77 368.663Z" fill="#634F80"></path> <path d="M1319.71 363.693C1319.58 362.842 1320.15 362.045 1321 361.889C1321.38 361.807 1321.77 361.892 1322.08 362.12C1322.4 362.347 1322.62 362.697 1322.68 363.088C1322.8 363.939 1322.23 364.736 1321.39 364.893C1321 364.968 1320.59 364.879 1320.27 364.648C1319.96 364.426 1319.75 364.078 1319.71 363.693Z" fill="#634F80"></path> <path d="M1329.07 352.164C1329.17 351.798 1329.37 351.469 1329.66 351.22C1329.96 350.941 1330.32 350.732 1330.72 350.607C1331.03 350.515 1331.36 350.558 1331.64 350.724C1331.87 350.885 1331.96 351.176 1331.87 351.44C1331.75 351.795 1331.54 352.112 1331.25 352.359C1330.96 352.646 1330.59 352.857 1330.2 352.972C1329.9 353.077 1329.56 353.042 1329.29 352.876C1329.07 352.712 1328.98 352.424 1329.07 352.164Z" fill="#634F80"></path> <path d="M1321.73 371.413C1321.79 371.763 1321.71 372.125 1321.49 372.406C1321.28 372.706 1320.97 372.913 1320.61 372.982C1320.25 373.052 1319.88 372.972 1319.59 372.762C1319.31 372.558 1319.12 372.244 1319.08 371.897C1319.03 371.535 1319.13 371.168 1319.35 370.875C1319.54 370.573 1319.85 370.369 1320.21 370.317C1320.55 370.239 1320.91 370.31 1321.19 370.512C1321.49 370.726 1321.68 371.052 1321.73 371.413Z" fill="#634F80"></path> <path d="M1373.24 243.273L1350.36 255.596C1369.13 260.248 1373.24 243.273 1373.24 243.273Z" fill="#607F4E"></path> <path d="M1359.68 260.296L1336.8 272.62C1355.53 277.281 1359.68 260.296 1359.68 260.296Z" fill="#607F4E"></path> <path d="M1336.8 272.619L1359.68 260.296C1342.42 257.21 1336.8 272.619 1336.8 272.619Z" fill="#7FA765"></path> <path d="M1420.27 279.855L1434.51 299.412L1412.25 305.82L1421.61 324.343L1404.04 331.087L1410.4 345.549L1393.45 351.148L1420.27 279.855Z" fill="#0F1113"></path> <path d="M1371.62 288.366C1368.39 287.594 1365.09 287.129 1361.77 286.977C1370.32 283.585 1379.28 281.291 1388.43 280.149C1399.37 278.636 1412.15 270.026 1423.2 270.383C1409.69 314.987 1391.43 361.692 1379.97 397.432C1375.76 412.631 1373.06 418.077 1379.62 423.381C1377.66 430.551 1378.65 440.71 1374.87 444.344C1368.63 440.478 1363.5 435.057 1359.99 428.615C1356.06 421.769 1354.62 413.784 1355.91 406.012C1357.1 398.954 1362.11 381.906 1370.93 354.869C1375.34 341.351 1389.42 298.144 1386.16 295.369C1381.91 291.958 1376.94 289.562 1371.62 288.366Z" fill="#F05B6B"></path> <path d="M1361.77 286.977C1365.09 287.129 1368.39 287.594 1371.62 288.366C1376.93 289.546 1381.89 291.922 1386.14 295.31C1389.41 298.084 1375.3 341.337 1370.91 354.81C1362.09 381.847 1357.09 398.894 1355.89 405.953C1354.6 413.725 1356.04 421.709 1359.97 428.556C1363.48 434.997 1368.61 440.419 1374.86 444.285C1368.08 450.645 1358.39 451.451 1345.78 446.704C1305.94 427.587 1311.77 380.625 1330 327.133L1333.52 312.86C1334.06 307.294 1336.11 301.984 1339.45 297.497C1344.65 290.157 1352.09 286.651 1361.77 286.977Z" fill="#FFC42F"></path> <path d="M1384.91 302.612C1377.75 312.872 1368.98 322.557 1357.47 327.439C1351.98 329.806 1344.6 330.572 1340.81 325.879C1337.3 321.499 1339.08 315.118 1341.02 309.878L1348.13 290.665C1348.93 288.653 1349.96 286.296 1352.11 285.881L1384.91 302.612Z" fill="#440F14"></path> <path d="M1354.59 309.224L1353.41 311.748L1339.22 305.225L1340.4 302.701L1354.59 309.224Z" fill="#514B4B"></path> <path d="M1352.63 311.304L1352.16 311.779L1339.96 306.114L1340.02 305.451L1352.63 311.304Z" fill="#3F3A3A"></path> <path d="M1324.21 240.381C1328.58 238.667 1333.37 238.271 1337.97 239.242C1343.93 240.415 1349.74 242.288 1355.27 244.822C1360.25 247.004 1367.26 250.452 1376.29 255.168C1381.17 257.723 1389.25 261.906 1400.54 267.717L1415.98 275.679L1408.42 283.423C1402.16 289.582 1396 295.144 1389.93 300.108C1380.3 308.016 1367.36 310.802 1351.09 308.464C1343.7 307.532 1336.46 305.595 1329.59 302.707L1324.78 300.684C1321.01 299.029 1317.55 297.389 1314.41 295.763C1311.69 294.378 1308.04 292.289 1303.45 289.497C1300.16 287.485 1298.42 286.561 1298.23 286.724C1299.21 283.155 1300.38 279.643 1301.75 276.203C1305.14 267.315 1309.22 258.705 1313.95 250.45C1316.71 245.538 1320.14 242.181 1324.21 240.381Z" fill="#F05B6B"></path> <path d="M1334.62 228.554C1337.37 229.149 1339.67 231.017 1340.81 233.58C1342.34 236.508 1342.87 239.851 1342.33 243.103C1341.97 246.303 1340.53 249.283 1338.25 251.56C1336.41 253.554 1333.67 254.463 1331 253.967C1328.26 253.367 1325.96 251.501 1324.81 248.942C1323.3 246.008 1322.77 242.671 1323.29 239.418C1323.66 236.219 1325.09 233.239 1327.37 230.962C1329.21 228.968 1331.95 228.058 1334.62 228.554Z" fill="#F05B6B"></path> <path d="M1332.09 234.246C1333.18 234.291 1334.16 234.926 1334.64 235.902C1335.36 237.132 1335.7 238.543 1335.62 239.961C1335.61 241.407 1335.19 242.821 1334.42 244.04C1333.92 245.036 1332.93 245.694 1331.81 245.77C1330.73 245.748 1329.75 245.11 1329.29 244.127C1328.56 242.904 1328.22 241.488 1328.31 240.068C1328.32 238.623 1328.73 237.209 1329.49 235.981C1329.99 234.986 1330.97 234.327 1332.09 234.246Z" fill="#0F1113"></path> <path d="M1321.09 233.317C1323.38 235.391 1324.99 238.104 1325.72 241.101C1326.57 243.93 1326.45 246.96 1325.37 249.707C1324.62 251.992 1322.67 253.678 1320.3 254.096C1317.76 254.401 1315.23 253.497 1313.45 251.656C1311.16 249.591 1309.55 246.878 1308.84 243.88C1307.98 241.05 1308.09 238.017 1309.16 235.261C1309.91 232.989 1311.86 231.315 1314.22 230.895C1316.76 230.59 1319.3 231.486 1321.09 233.317Z" fill="#F05B6B"></path> <path d="M1320.05 243.528C1319.85 244.447 1319.18 245.19 1318.28 245.475C1317.31 245.698 1316.28 245.423 1315.55 244.741C1314.58 243.941 1313.87 242.879 1313.49 241.683C1313.07 240.529 1313.01 239.276 1313.32 238.089C1313.51 237.17 1314.18 236.426 1315.08 236.141C1316.06 235.918 1317.08 236.193 1317.82 236.876C1318.79 237.683 1319.5 238.759 1319.86 239.968C1320.29 241.108 1320.35 242.351 1320.05 243.528Z" fill="#0F1113"></path> <path d="M1381.34 307.783L1375.62 320.077L1364.19 311.701L1381.34 307.783Z" fill="white"></path> <path d="M1363.9 311.57L1354.64 320.174L1345.27 308.963L1363.9 311.57Z" fill="white"></path> <path d="M1327.64 304.249L1345.11 309.297L1333.77 315.254L1327.64 304.249Z" fill="white"></path> <path d="M1322.55 302.057C1322.17 301.886 1321.87 301.573 1321.72 301.186C1321.58 300.809 1321.6 300.389 1321.77 300.027C1322.11 299.259 1323 298.908 1323.77 299.241C1323.79 299.252 1323.82 299.263 1323.84 299.275C1328.43 301.363 1333.16 303.11 1338.01 304.502C1343.98 306.297 1350.11 307.557 1356.3 308.264C1361.53 308.926 1366.82 308.847 1372.02 308.029C1377.95 306.967 1382.35 304.7 1385.23 301.227C1385.48 300.901 1385.86 300.695 1386.27 300.66C1386.69 300.607 1387.13 300.741 1387.45 301.026C1387.77 301.285 1387.97 301.657 1388.02 302.062C1388.07 302.489 1387.94 302.918 1387.66 303.242C1381.85 310.307 1371.31 313.016 1356.05 311.369C1344.45 310.138 1333.12 306.991 1322.55 302.057Z" fill="white"></path> <path d="M1416.09 232.54C1416.78 231.756 1417.82 231.371 1418.86 231.515C1420.22 231.674 1421.52 232.161 1422.65 232.931C1424.61 234.199 1426.1 236.065 1426.91 238.249C1427.76 240.309 1428.17 242.522 1428.12 244.747C1428.1 245.628 1427.9 246.495 1427.52 247.289C1427.22 248.056 1426.61 248.653 1425.83 248.921C1424.11 249.295 1422.34 248.488 1421.5 246.942C1421.27 246.471 1420.66 245.021 1419.66 242.591C1419.07 241.046 1418.26 239.599 1417.24 238.298C1416.44 237.539 1415.87 236.57 1415.61 235.503C1415.25 234.498 1415.43 233.38 1416.09 232.54Z" fill="#0F1113"></path> <path d="M1376.95 220.396C1378.76 219.062 1380.84 218.116 1383.04 217.62C1385.3 217.032 1387.7 217.201 1389.86 218.1C1391.14 218.588 1392.29 219.374 1393.21 220.392C1393.93 221.164 1394.21 222.249 1393.95 223.271C1393.63 224.293 1392.81 225.083 1391.78 225.374C1390.75 225.785 1389.63 225.888 1388.54 225.67C1386.87 225.561 1385.19 225.721 1383.58 226.142C1382.28 226.385 1380.73 226.721 1378.93 227.151C1378.08 227.288 1377.2 227.1 1376.48 226.624C1375.71 226.226 1375.11 225.557 1374.8 224.746C1374.6 223.938 1374.74 223.084 1375.18 222.382C1375.62 221.604 1376.23 220.928 1376.95 220.396Z" fill="#0F1113"></path> <path d="M1387.91 269.067C1386.05 264.339 1386.23 259.059 1388.41 254.479C1392.79 244.909 1404.13 240.712 1413.74 245.104C1423.34 249.496 1427.58 260.814 1423.2 270.384C1421.16 275.026 1417.28 278.616 1412.49 280.301C1402.61 283.944 1391.63 278.921 1387.93 269.071L1387.91 269.067Z" fill="#6F578C"></path> <path d="M1362.56 255.598C1360.69 250.884 1360.87 245.614 1363.04 241.045C1365.08 236.398 1368.96 232.806 1373.75 231.127C1383.63 227.484 1394.62 232.508 1398.32 242.357C1400.18 247.083 1400 252.366 1397.81 256.944C1395.78 261.578 1391.91 265.157 1387.12 266.828C1377.24 270.471 1366.26 265.447 1362.56 255.598Z" fill="#6F578C"></path> <path d="M1410.89 251.335C1417.02 254.179 1419.73 261.401 1416.98 267.544C1414.16 273.686 1406.88 276.375 1400.71 273.55C1394.55 270.724 1391.83 263.454 1394.65 257.311C1397.45 251.186 1404.71 248.497 1410.86 251.305L1410.88 251.318L1410.89 251.335Z" fill="white"></path> <path d="M1368.95 253.234C1366.58 246.932 1369.78 239.919 1376.09 237.57C1376.11 237.563 1376.12 237.557 1376.14 237.551C1382.5 235.243 1389.54 238.517 1391.87 244.863C1392.97 247.86 1392.85 251.164 1391.54 254.071C1388.72 260.21 1381.44 262.892 1375.28 260.063C1372.33 258.708 1370.03 256.244 1368.89 253.211L1368.95 253.234V253.234Z" fill="white"></path> <path d="M1410.77 260.91C1413.88 262.309 1415.27 265.955 1413.88 269.054C1413.2 270.566 1411.94 271.738 1410.38 272.306C1407.2 273.527 1403.62 271.944 1402.39 268.771C1401.77 267.187 1401.84 265.423 1402.57 263.894C1403.99 260.802 1407.65 259.443 1410.75 260.859C1410.76 260.864 1410.77 260.87 1410.77 260.87L1410.77 260.91Z" fill="#0F1113"></path> <path d="M1385.07 248.101C1388.17 249.545 1389.55 253.201 1388.15 256.313C1386.68 259.377 1383 260.668 1379.92 259.196C1376.85 257.723 1375.54 254.045 1377.01 250.98C1377.69 249.566 1378.89 248.464 1380.35 247.9C1381.88 247.309 1383.59 247.381 1385.07 248.101Z" fill="#0F1113"></path> <path d="M1322.12 332.084C1322.12 332.084 1342.79 356.976 1410.4 345.549L1378.52 412.137L1310.25 396.069C1310.25 396.069 1302.78 343.76 1322.12 332.084Z" fill="#C9DFDB"></path> <path d="M1343.36 450.001C1340.48 456.667 1334.22 470.387 1331.2 476.994C1329.62 480.452 1328.03 484.4 1329.52 487.454C1330.41 489.266 1332.24 490.402 1334.12 491.285C1338.96 493.556 1344.54 494.625 1350.28 494.376C1353.9 494.218 1357.72 493.483 1360.9 491.368C1366.51 487.635 1370.71 483.551 1371.75 477.449C1373.9 464.901 1383.07 440.574 1376.72 429.965C1368.68 416.529 1346.8 442.059 1343.36 450.001Z" fill="#C9DFDB"></path> <path d="M1375.37 391.346C1379.09 402.978 1380.82 415.241 1380.46 427.438C1380.27 433.678 1379.25 440.499 1374.59 444.662C1369.44 449.274 1361.63 449.059 1354.78 447.977C1346.02 446.594 1337.27 444.167 1329.81 439.376C1313.3 428.774 1305.62 406.268 1312.24 387.868C1326.81 385.625 1340.26 386.449 1354.98 387.553C1358.41 387.811 1361.85 388.069 1365.28 388.326C1368.67 388.581 1372.03 390.675 1375.37 391.346Z" fill="#C9DFDB"></path> <path d="M1392.96 350.722C1402.83 347.069 1413.97 350.485 1423.25 355.511C1429.41 358.853 1433.36 364.515 1437.33 370.288C1447.76 385.467 1430.84 410.643 1413.83 381.621C1410.35 375.683 1393.98 378.087 1389.28 373.051C1387.56 371.206 1386.75 368.687 1386.34 366.201C1385.55 361.368 1386.23 356.007 1389.49 352.359C1392.76 348.711 1399.04 347.625 1402.63 350.968L1392.96 350.722Z" fill="#C9DFDB"></path> <path d="M1304.18 416.807C1311.07 408.037 1308.91 415.406 1314.1 414.983C1319.3 414.56 1323.17 420.449 1323.86 425.604C1324.27 428.612 1325.6 432.507 1324.17 435.179C1316.15 450.091 1308.69 455.246 1295.6 465.999C1294.03 467.287 1292.35 468.576 1290.36 468.983C1287.72 469.524 1285.01 468.409 1282.68 467.029C1274.98 462.454 1262.86 448.899 1269.67 439.906C1273.07 435.412 1281.77 431.731 1286.44 428.618C1292.35 424.681 1299.79 422.385 1304.18 416.807Z" fill="#BED0CD"></path> <path d="M1350.22 218.884C1359.06 222.41 1369.07 218.129 1372.58 209.32C1376.1 200.512 1371.78 190.513 1362.94 186.986C1354.1 183.459 1344.09 187.741 1340.57 196.549C1337.06 205.358 1341.38 215.357 1350.22 218.884Z" fill="#C2E5E0"></path> <path d="M1342.25 350.418C1351.4 353.38 1361.15 353.742 1370.76 354.079C1383.19 354.515 1395.99 354.895 1407.64 350.591C1409.25 349.996 1410.89 349.263 1411.95 347.918C1413.01 346.572 1413.27 344.447 1412.08 343.208C1410.46 341.529 1407.68 342.456 1405.53 343.327C1391.67 348.912 1376.04 347.299 1361.29 344.809C1352.77 343.371 1344.09 341.517 1336.38 337.478C1333.21 335.817 1325.46 328.17 1321.9 328.7C1316.88 329.446 1322.71 336.895 1324.69 339.233C1329.21 344.595 1335.63 348.275 1342.25 350.418Z" fill="#F38236"></path> <path d="M1356.21 428.627C1361.11 425.854 1370.81 421.54 1376.38 422.452C1381.94 423.364 1383.49 424.271 1381.31 431.851C1353.75 431.26 1344.84 448.342 1343.84 445.579C1340.87 437.393 1353.17 430.348 1356.21 428.627Z" fill="#F38236"></path> <path d="M1324.96 419.045C1326.14 420.686 1326.75 422.43 1327.46 424.321C1328.84 428.009 1328.55 432.289 1328.29 433.42C1327.32 437.622 1328.29 433.42 1327.35 436.04C1326.94 437.182 1327.02 437.9 1325.8 437.87C1325.05 437.851 1324.22 436.336 1324.22 436.336C1321.99 433.391 1322.77 429.443 1321.42 426.01C1320.14 422.741 1317.69 419.938 1314.62 418.22C1311.53 416.492 1302.98 413.198 1308.1 409.424C1311 407.281 1322.34 415.417 1324.96 419.045Z" fill="#F38236"></path> <path d="M1399.04 351.225C1394.75 354.267 1392.08 359.079 1390.19 363.979C1389.6 365.54 1389.06 367.144 1388.91 368.809C1388.61 371.997 1389.88 375.355 1392.38 377.361C1394.89 379.366 1399.59 379.156 1402.39 377.593C1399.64 376.789 1397.06 374.416 1397.09 371.564C1397.12 368.712 1398.46 366.045 1399.96 363.619C1401.28 361.486 1404.69 357.606 1406.53 355.902C1409.88 352.806 1413.79 352.459 1412.76 350.479C1410.42 346.013 1402.31 348.901 1399.04 351.225Z" fill="#F38236"></path> <path d="M1326.59 353.007L1320.09 370.2L1365.1 383.167L1368.73 365.381L1326.59 353.007Z" fill="#D6E9E5"></path> <path d="M1381.7 405.891C1383.93 406.276 1383.47 416.758 1381.23 418.203C1377.94 420.315 1371.87 418.974 1366.94 418.105C1353.25 415.695 1332.73 417.568 1309.9 403.36C1307.55 399.605 1309.5 394.49 1309.76 394.081C1311.45 391.454 1315.68 394.138 1318.04 394.918C1325.11 397.244 1332.29 399.225 1339.54 400.874C1354.04 404.17 1371.5 404.132 1381.7 405.891Z" fill="#D6E9E5"></path> <path d="M1288.56 429.246C1288.17 431.026 1289.02 432.909 1290.29 434.224C1291.56 435.54 1293.25 436.373 1294.96 437.021C1297.71 438.064 1301.1 438.592 1303.34 436.703C1305.53 434.86 1305.6 431.309 1304.11 428.86C1302.62 426.411 1299.97 424.9 1297.28 423.9C1297.28 423.9 1289.93 423.018 1288.56 429.246Z" fill="#EF4E53"></path> <path d="M1367.03 454.41C1363.44 450.511 1356.44 450.533 1352.89 454.454C1352.11 455.317 1351.47 456.387 1351.45 457.551C1351.42 458.969 1352.34 460.274 1353.51 461.092C1354.67 461.909 1356.06 462.327 1357.43 462.731C1360.25 463.567 1363.07 464.403 1365.89 465.239C1366.92 465.546 1368.02 465.854 1369.06 465.56C1370.64 465.112 1371.55 463.338 1371.5 461.698C1371.44 460.058 1370.64 458.54 1369.77 457.143C1368.91 455.746 1367.9 454.351 1366.45 453.579C1365 452.807 1362.99 452.853 1361.91 454.091L1367.03 454.41Z" fill="#EF4E53"></path> <path d="M1277.92 433.338C1282.24 436.855 1284.73 442.139 1286.43 447.439C1287.96 452.195 1288.96 457.116 1289.43 462.086C1289.54 463.363 1290.78 469.695 1286.95 470.686C1281.17 472.178 1274.68 466.627 1270.18 462.706C1265.67 458.784 1262.73 453.412 1260.06 448.078C1257.36 442.682 1255.01 435.018 1261.33 430.965C1266.01 427.957 1273.94 430.106 1277.92 433.338Z" fill="#08899C"></path> <path d="M1366.14 470.798C1367.62 471.109 1371.06 471.287 1374.99 473.219C1378.46 474.925 1379.07 481.214 1377.8 484.852C1376.53 488.491 1373.37 491.233 1369.85 492.806C1366.32 494.378 1362.43 494.921 1358.58 495.304C1352.58 495.902 1323.26 495.429 1333.91 482.501C1340.53 474.46 1356.44 468.764 1366.14 470.798Z" fill="#08899C"></path> <path d="M1264.47 434.898C1262.08 435.257 1259.86 437.206 1259.71 439.617C1259.6 441.331 1260.47 442.939 1261.32 444.438C1263.24 447.839 1265.17 451.241 1267.09 454.643C1269.83 459.499 1273.06 464.758 1278.4 466.419C1278.86 466.563 1279.35 466.677 1279.82 466.575C1280.58 466.412 1281.11 465.745 1281.5 465.081C1285.34 458.551 1282.01 449.894 1278.14 444.177C1275.32 440.009 1270.04 434.064 1264.47 434.898Z" fill="#005E6B"></path> <path d="M1356.77 476.113C1358.58 475.688 1360.41 475.26 1362.27 475.252C1363.81 475.246 1365.36 475.535 1366.8 476.098C1368.39 476.716 1369.87 477.697 1370.82 479.105C1371.76 480.512 1372.1 482.383 1371.43 483.938C1370.49 486.141 1367.96 487.122 1365.68 487.882C1360.67 489.551 1341.13 496.996 1337.58 490.232C1333.12 481.76 1352.49 477.118 1356.77 476.113Z" fill="#005E6B"></path> <path d="M1410.86 380.362C1410.86 380.362 1425.59 365.421 1437.33 370.288C1437.33 370.288 1440.53 361.419 1429.92 360.719C1429.92 360.719 1413.62 362.043 1410.86 380.362Z" fill="#F38236"></path> <path d="M1299 333.751C1299 333.751 1290.56 352.941 1277.87 352.536C1277.87 352.536 1278.03 361.97 1288.18 358.875C1288.18 358.875 1302.94 351.869 1299 333.751Z" fill="#F38236"></path> <path d="M1422.01 392.371C1422.01 392.371 1435.62 376.34 1443.61 382.17C1451.6 388 1439.73 391.88 1439.73 391.88L1422.01 392.371Z" fill="#F38236"></path> <path d="M1290.9 327.813C1290.9 327.813 1280.02 345.806 1271.21 341.315C1262.4 336.824 1273.48 331.111 1273.48 331.111L1290.9 327.813Z" fill="#F38236"></path> <path d="M1423.54 409.407C1425.83 409.317 1427.88 400.634 1427.88 400.634L1433.55 406.551C1433.97 406.992 1434.64 406.871 1434.88 406.31L1438.07 398.789C1438.07 398.789 1442.75 406.464 1445 405.962C1448.75 405.127 1448.5 382.123 1430.55 387.516C1412.6 392.908 1423.54 409.407 1423.54 409.407Z" fill="#A6B6B3"></path> <path d="M1290.15 310.391C1287.86 310.566 1286.13 319.32 1286.13 319.32L1280.25 313.616C1279.81 313.191 1279.15 313.337 1278.93 313.906L1276.03 321.54C1276.03 321.54 1271.06 314.043 1268.83 314.629C1265.11 315.601 1266.22 338.582 1283.96 332.529C1301.69 326.476 1290.15 310.391 1290.15 310.391Z" fill="#A6B6B3"></path> <path d="M1359.47 375.885L1327.71 366.713C1326.01 366.221 1325.02 364.442 1325.51 362.742L1325.59 362.489C1326.08 360.789 1327.86 359.81 1329.56 360.302L1361.32 369.474C1363.03 369.967 1364.01 371.745 1363.52 373.446L1363.45 373.698C1362.96 375.399 1361.18 376.378 1359.47 375.885Z" fill="#EF4E53"></path> <path d="M1320.96 385.754C1323.23 386.657 1325.79 385.56 1326.69 383.305C1327.59 381.049 1326.49 378.488 1324.22 377.585C1321.96 376.682 1319.4 377.779 1318.5 380.034C1317.6 382.29 1318.7 384.851 1320.96 385.754Z" fill="#EF4E53"></path> <path d="M1356.79 395.313C1359.06 396.216 1361.62 395.12 1362.52 392.864C1363.42 390.609 1362.32 388.048 1360.05 387.145C1357.79 386.242 1355.22 387.338 1354.32 389.594C1353.42 391.85 1354.53 394.41 1356.79 395.313Z" fill="#8FC743"></path> <path d="M1338.53 391.118C1340.8 392.021 1343.36 390.925 1344.26 388.669C1345.16 386.413 1344.06 383.853 1341.79 382.95C1339.53 382.047 1336.96 383.143 1336.06 385.399C1335.17 387.654 1336.27 390.215 1338.53 391.118Z" fill="#8FC743"></path> <path d="M1637.49 692.837C1680.29 708.843 1727.88 687.153 1743.78 644.391C1759.69 601.628 1737.89 553.987 1695.09 537.981C1652.29 521.975 1604.71 543.666 1588.8 586.428C1572.89 629.19 1594.69 676.831 1637.49 692.837Z" fill="#00B3CB"></path> <path d="M1639.25 688.106C1679.43 703.134 1724.11 682.769 1739.05 642.62C1753.98 602.471 1733.51 557.742 1693.33 542.714C1653.15 527.686 1608.47 548.051 1593.54 588.2C1578.6 628.349 1599.07 673.078 1639.25 688.106Z" fill="#A9DBD4"></path> <path d="M1641.1 572.278C1649.67 575.481 1659.19 571.14 1662.38 562.581C1665.56 554.022 1661.2 544.486 1652.63 541.282C1644.06 538.079 1634.54 542.42 1631.35 550.979C1628.17 559.538 1632.53 569.074 1641.1 572.278Z" fill="#C2E5E0"></path> <path d="M1690.39 750.934C1690.39 750.934 1698.48 763.704 1708.38 771.349C1715.81 777.079 1725.34 777.948 1727.22 779.356C1726.46 784.551 1726.57 789.835 1727.53 794.997L1752.58 768.599L1731.66 757.908C1726.93 755.522 1722.66 752.337 1719.02 748.493L1707.33 736.02L1690.39 750.934Z" fill="white"></path> <path d="M1727.25 779.367L1744.38 764.452L1741.2 762.824L1723.84 778.102L1727.25 779.367Z" fill="#A5A8A8"></path> <path d="M1725.4 754.102L1712.79 774.131L1710.59 772.856C1710.59 772.856 1722.94 751.319 1723.24 751.957C1723.86 752.769 1724.58 753.491 1725.4 754.102Z" fill="#A5A8A8"></path> <path d="M1710.57 772.833L1719.05 748.492L1717.12 746.028L1708.4 771.359L1710.57 772.833Z" fill="#A5A8A8"></path> <path d="M1741.4 775.085C1740.15 775.085 1739.14 774.075 1739.14 772.83C1739.14 771.585 1740.15 770.575 1741.4 770.575C1742.65 770.575 1743.66 771.585 1743.66 772.83C1743.66 774.075 1742.65 775.085 1741.4 775.085Z" fill="#A5A8A8"></path> <path d="M1656.24 755.268C1656.24 755.268 1658.08 770.271 1663.76 781.413C1668.01 789.761 1676.27 794.612 1677.35 796.702C1674.44 801.085 1672.27 805.916 1670.93 811.001L1704.86 797.89L1690.54 779.268C1687.31 775.08 1684.83 770.365 1683.22 765.332L1677.99 749.064L1656.24 755.268Z" fill="white"></path> <path d="M1677.35 796.69L1699.22 790.531L1697.04 787.715L1674.8 794.083L1677.35 796.69Z" fill="#A5A8A8"></path> <path d="M1686.5 773.065L1666.52 785.78L1665.06 783.668C1665.06 783.668 1685.45 769.49 1685.43 770.183C1685.65 771.189 1686.01 772.159 1686.5 773.065Z" fill="#A5A8A8"></path> <path d="M1665.07 783.668L1683.17 765.299L1682.47 762.22L1663.74 781.402L1665.07 783.668Z" fill="#A5A8A8"></path> <path d="M1692.94 799.118C1691.7 799.118 1690.69 798.109 1690.69 796.863C1690.69 795.618 1691.7 794.608 1692.94 794.608C1694.19 794.608 1695.2 795.618 1695.2 796.863C1695.2 798.109 1694.19 799.118 1692.94 799.118Z" fill="#A5A8A8"></path> <path d="M1650.63 683.081C1642.27 688.911 1612.71 701.461 1594.31 684.951C1592.72 689.571 1590.63 692.727 1588.5 697.149C1599.84 714.495 1646.71 716.441 1656.14 704.771" fill="#A5A8A8"></path> <path d="M1589.62 696.489C1588.7 696.896 1587.67 696.951 1586.71 696.643C1583.1 695.587 1580.05 693.153 1578.22 689.868C1580.07 689.329 1582.03 689.258 1583.92 689.659C1583.12 687.499 1583.05 685.136 1583.74 682.938C1585.17 683.564 1586.64 684.086 1588.15 684.5C1588.49 682.602 1589.18 680.785 1590.19 679.144C1594.8 681.42 1596.69 686.995 1594.41 691.596C1594.08 692.257 1593.67 692.877 1593.2 693.442" fill="#A5A8A8"></path> <path d="M1702.22 678.142C1710.58 683.971 1740.14 696.521 1758.53 680.011C1760.13 684.631 1762.21 687.788 1764.34 692.209C1753 709.555 1706.14 711.502 1696.7 699.832" fill="#A5A8A8"></path> <path d="M1763.21 691.56C1764.13 691.968 1765.16 692.022 1766.12 691.714C1769.73 690.658 1772.78 688.224 1774.61 684.939C1772.76 684.401 1770.8 684.329 1768.92 684.73C1769.71 682.571 1769.78 680.208 1769.09 678.01C1767.66 678.635 1766.19 679.157 1764.69 679.571C1764.34 677.674 1763.65 675.857 1762.64 674.215C1758.03 676.491 1756.14 682.066 1758.42 686.667C1758.75 687.328 1759.16 687.948 1759.63 688.514" fill="#A5A8A8"></path> <path d="M1713.15 624.719C1713.43 621.101 1712.51 618.296 1710.43 616.217C1709.8 615.572 1709.05 615.05 1708.23 614.677L1707.24 614.226C1700.65 612.694 1693.97 611.591 1687.24 610.926C1672.3 609.387 1660.89 610.288 1652.93 613.731C1649.86 615.084 1648.13 617.031 1647.77 619.792C1647.69 620.606 1647.69 621.992 1647.69 624.037C1647.78 625.723 1647.78 627.412 1647.69 629.097C1647.6 630.549 1646.78 635.333 1645.15 643.561C1643.16 653.779 1641.72 662.182 1640.63 668.606C1636.83 692.738 1636.37 710.006 1639.08 720.401C1641.08 728.1 1644.06 734.051 1647.89 738.208C1651.07 741.739 1655.86 744.896 1662.21 747.701C1668.48 749.65 1675.01 750.673 1681.58 750.736C1692.8 751.011 1701.04 748.536 1706.29 743.037C1710.18 739.154 1712.45 733.369 1713.26 725.768C1713.5 723.364 1713.56 720.944 1713.44 718.531L1713.26 715.55C1712.99 714.197 1712.81 712.657 1712.62 710.853C1710.9 691.957 1710.09 679.572 1710.18 673.786C1710.34 668.65 1711.26 652.283 1713.15 624.719Z" fill="#FD5564"></path> <path d="M1648.8 657.804C1647.2 657.75 1645.62 658.09 1644.18 658.794C1641.93 660.246 1640.3 664.668 1639.48 672.268C1639.44 673.241 1639.32 674.208 1639.12 675.161C1638.92 675.994 1638.77 676.839 1638.67 677.691C1637.76 690.615 1637.31 697.94 1637.31 699.689C1637 706.426 1637.44 713.177 1638.62 719.817L1639.61 723.117C1640.62 725.675 1641.92 728.104 1643.5 730.354C1648.66 737.405 1656.08 741.024 1665.58 741.2C1675.09 741.376 1682.33 739.935 1687.4 736.8C1689.94 735.172 1691.48 733.5 1692.11 731.916C1685.05 722.6 1681.25 710.127 1680.79 694.398C1680.65 689.476 1680.86 684.55 1681.43 679.659L1682.25 673.698C1682.07 671.926 1682.01 670.144 1682.07 668.363C1682.14 666.639 1682.01 664.914 1681.71 663.216C1680.81 659.597 1677.55 657.881 1671.93 657.969C1668.76 658.057 1665.68 658.057 1662.6 657.969C1659.16 657.969 1656.89 657.881 1655.72 657.881C1653.41 657.721 1651.1 657.696 1648.8 657.804Z" fill="#FD8E9E"></path> <path d="M1678.42 667.429C1678.42 671.631 1667.04 682.828 1662.06 682.828C1657.08 682.828 1653.18 679.407 1653.18 675.205C1653.18 671.004 1657.24 667.583 1662.06 667.583C1666.88 667.583 1678.42 663.227 1678.42 667.429Z" fill="#322C2D"></path> <path d="M1718.66 607.264L1710.87 610.431L1709.61 672.027L1717.76 665.702C1718.81 664.906 1719.5 663.715 1719.66 662.402C1719.84 661.057 1719.49 659.694 1718.67 658.608L1714.51 653.273L1733.87 638.853C1734.78 638.207 1735.39 637.212 1735.54 636.103C1735.76 634.962 1735.53 633.782 1734.9 632.804L1718.66 607.264Z" fill="#3B2057"></path> <path d="M1665.36 674.49L1670.43 670.091L1641.19 668.463L1641.01 670.454L1644.18 675.7C1644.61 676.5 1645.38 677.066 1646.27 677.24C1647.15 677.423 1648.07 677.227 1648.8 676.701L1653.05 673.72L1656.94 677.966C1657.58 678.685 1658.51 679.086 1659.47 679.066C1660.43 679.071 1661.35 678.672 1662 677.966L1665.36 674.49Z" fill="white"></path> <path d="M1653.41 598.596C1647.53 596.693 1642.47 595.704 1638.2 595.792C1634.03 595.792 1629.95 596.982 1626.44 599.223C1622.46 602.011 1619.09 605.577 1616.53 609.705C1611.46 617.482 1606.85 628.151 1602.68 641.438C1601.43 645.25 1601.4 649.355 1602.6 653.185C1603.77 656.888 1605.76 659.418 1608.57 660.774C1615.08 663.933 1621.81 666.63 1628.71 668.848C1639.21 672.147 1647.99 673.907 1655.14 674.094C1666.08 674.482 1676.76 670.774 1685.1 663.7L1711.53 624.015C1693.91 616.063 1681.21 610.365 1673.43 606.747C1665.19 602.996 1658.58 600.334 1653.41 598.596Z" fill="#FD5564"></path> <path d="M1632.88 592.371C1632.1 590.834 1630.97 589.504 1629.58 588.488C1628.39 587.595 1626.9 587.175 1625.42 587.311C1623.51 587.568 1621.88 588.828 1621.16 590.611C1620.16 592.76 1619.94 595.189 1620.53 597.486C1620.95 599.91 1622.11 602.149 1623.83 603.909L1647.18 598.212C1647.75 595.625 1647.46 592.923 1646.36 590.512C1645.52 588.42 1643.74 586.847 1641.56 586.267C1639.77 585.817 1637.86 586.223 1636.41 587.366C1634.81 588.697 1633.6 590.423 1632.88 592.371Z" fill="#FD5564"></path> <path d="M1629.52 594.725C1629.29 593.741 1628.75 592.856 1627.98 592.195C1627.46 591.615 1626.67 591.342 1625.9 591.469C1625.17 591.702 1624.59 592.276 1624.36 593.009C1624.09 593.924 1624.09 594.899 1624.36 595.814C1624.59 596.798 1625.13 597.683 1625.9 598.344C1626.46 598.949 1627.29 599.223 1628.1 599.07C1628.85 598.864 1629.44 598.279 1629.65 597.53C1629.83 596.598 1629.79 595.637 1629.52 594.725Z" fill="#3B2057"></path> <path d="M1642.1 595.297C1642.23 594.168 1642.04 593.027 1641.56 591.997C1641.18 591.21 1640.44 590.665 1639.57 590.545C1638.67 590.588 1637.85 591.059 1637.37 591.81C1636.68 592.779 1636.3 593.926 1636.26 595.11C1636.12 596.249 1636.35 597.405 1636.9 598.409C1637.22 599.231 1638.02 599.771 1638.9 599.762C1639.8 599.759 1640.64 599.278 1641.1 598.497C1641.7 597.534 1642.05 596.432 1642.1 595.297Z" fill="#3B2057"></path> <path d="M1721.62 610.146C1718.73 603.012 1710.59 599.572 1703.45 602.462C1700.01 603.853 1697.27 606.555 1695.83 609.97C1694.31 613.357 1694.27 617.227 1695.74 620.639C1697.12 624.075 1699.83 626.812 1703.25 628.228C1710.36 631.22 1718.55 627.892 1721.54 620.794C1722.98 617.395 1723.01 613.566 1721.62 610.146V610.146V610.146Z" fill="white"></path> <path d="M1674.1 587.905C1670.64 589.253 1667.89 591.967 1666.5 595.407C1663.52 602.487 1666.86 610.635 1673.95 613.606C1681.04 616.578 1689.2 613.247 1692.17 606.167C1695.15 599.087 1691.81 590.938 1684.72 587.967C1681.33 586.544 1677.51 586.522 1674.1 587.905Z" fill="white"></path> <path d="M1717.1 595.296C1721.24 596.982 1724.71 599.966 1727.01 603.799L1738.51 607.505L1730.36 614.831V615.007L1735.86 618.989L1729.17 622.156L1728.53 623.696C1723.91 634.725 1711.21 639.927 1700.17 635.314C1693.93 632.708 1689.26 627.341 1687.56 620.803C1676.42 625.359 1663.7 620.038 1659.14 608.919C1656.94 603.558 1656.97 597.543 1659.23 592.206C1659.92 590.654 1660.77 589.18 1661.76 587.806L1661.49 579.667L1667.26 582.57L1667.71 582.295L1670.33 571.989L1677.67 579.128C1688.05 578.392 1697.48 585.158 1700.09 595.219C1702.7 594.134 1705.5 593.581 1708.33 593.592C1711.31 593.593 1714.26 594.176 1717.02 595.307L1717.1 595.296ZM1714.03 602.446C1706.93 599.454 1698.74 602.782 1695.74 609.88C1694.3 613.279 1694.28 617.108 1695.66 620.528C1697.04 623.965 1699.75 626.701 1703.17 628.118C1710.28 631.11 1718.47 627.782 1721.47 620.684C1722.9 617.284 1722.93 613.455 1721.54 610.035C1720.17 606.599 1717.46 603.863 1714.03 602.446ZM1666.42 605.977C1669.32 613.107 1677.46 616.539 1684.6 613.642C1691.74 610.744 1695.18 602.615 1692.28 595.485C1689.38 588.368 1681.26 584.933 1674.13 587.806C1670.67 589.154 1667.92 591.868 1666.53 595.307C1664.99 598.701 1664.99 602.594 1666.53 605.988L1666.42 605.977Z" fill="#6E568C"></path> <path d="M1707.82 733.247C1707.37 734.149 1706.92 734.963 1706.64 735.601C1704.56 740.661 1705.29 744.4 1708.85 746.534C1712.11 748.521 1716.09 748.613 1720.8 746.809C1727.81 744.099 1734.65 740.928 1741.25 737.317C1745.63 735.025 1749.81 732.365 1753.74 729.365C1755.26 728.054 1756.68 726.623 1757.98 725.086C1760.18 722.461 1760.91 720.653 1760.18 719.663C1759.64 718.93 1758.1 719.11 1755.57 720.202L1750.5 722.732C1737.82 728.793 1728.05 729.332 1721.45 724.272C1720.27 723.37 1718.46 723.546 1716.02 724.723C1712.47 726.651 1709.61 729.629 1707.82 733.247Z" fill="#FD5564"></path> <path d="M1710.09 739.033C1707.28 740.495 1704.61 742.218 1702.13 744.181C1699.51 746.623 1699.68 748.702 1702.58 750.242C1705.66 751.869 1713.98 749.611 1727.56 743.466C1732.9 741.024 1737.97 738.494 1742.86 735.69C1746.26 733.869 1749.5 731.753 1752.54 729.365C1753.8 728.265 1754.17 727.737 1753.53 727.737C1752.36 727.97 1751.25 728.398 1750.23 729.002C1743.25 732.61 1734.44 735.338 1723.79 737.186C1720.49 737.721 1717.18 738.172 1713.88 738.538L1710.09 739.033Z" fill="#FD8E9E"></path> <path d="M1674.51 598.723C1672.9 598.001 1671.06 598.001 1669.45 598.723C1667.82 599.373 1666.51 600.643 1665.82 602.254C1665.1 603.863 1665.1 605.704 1665.82 607.313C1667.13 610.717 1670.95 612.42 1674.36 611.116C1676.04 610.474 1677.38 609.176 1678.08 607.522C1678.8 605.913 1678.8 604.072 1678.08 602.463C1677.52 600.74 1676.21 599.365 1674.51 598.723Z" fill="#0F1113"></path> <path d="M1703.83 611.713C1702.22 610.991 1700.38 610.991 1698.76 611.713C1697.14 612.363 1695.83 613.633 1695.14 615.244C1694.42 616.853 1694.42 618.694 1695.14 620.304C1695.79 621.931 1697.06 623.233 1698.68 623.922C1700.29 624.644 1702.13 624.644 1703.74 623.922C1705.37 623.272 1706.68 622.002 1707.37 620.392C1708.09 618.782 1708.09 616.941 1707.37 615.332C1706.77 613.669 1705.48 612.348 1703.83 611.713Z" fill="#0F1113"></path> <path d="M1700.12 571.912C1698.87 570.796 1697.31 570.093 1695.64 569.9C1694.05 569.698 1692.43 569.822 1690.88 570.263C1690.26 570.418 1689.69 570.732 1689.23 571.176C1688.74 571.506 1688.43 572.048 1688.4 572.638C1688.41 573.248 1688.64 573.834 1689.04 574.288C1689.41 574.8 1689.97 575.132 1690.6 575.201C1690.96 575.289 1692.06 575.388 1693.99 575.663C1695.19 575.765 1696.37 576.074 1697.47 576.576C1698.12 577.02 1698.89 577.244 1699.67 577.214C1700.44 577.307 1701.19 576.952 1701.6 576.301C1702.03 575.683 1702.1 574.885 1701.79 574.2C1701.38 573.342 1700.81 572.567 1700.12 571.912Z" fill="#0F1113"></path> <path d="M1722.11 581.977C1721.1 580.649 1719.68 579.687 1718.07 579.238C1717.12 578.957 1716.12 578.893 1715.14 579.051C1713.99 579.217 1713.19 580.287 1713.35 581.442C1713.4 581.801 1713.55 582.14 1713.77 582.428C1714.15 583.1 1714.72 583.641 1715.42 583.979C1716.4 584.662 1717.26 585.493 1717.99 586.443L1720.12 589.104C1720.54 589.589 1721.14 589.887 1721.78 589.929C1722.37 590.042 1722.98 589.945 1723.52 589.654C1724 589.314 1724.3 588.778 1724.34 588.192C1724.45 587.551 1724.42 586.895 1724.25 586.267C1723.9 584.684 1723.16 583.211 1722.11 581.977Z" fill="#0F1113"></path> <path d="M1721.4 724.295C1721.4 724.295 1712.75 713.02 1712.04 704.496C1712.04 704.496 1656.31 717.508 1637.22 714.395C1637.22 714.395 1643.6 748.053 1656.23 755.29L1690.38 750.967C1690.38 750.967 1710.53 753.552 1719.01 748.515C1719.02 748.493 1715.19 733.567 1721.4 724.295Z" fill="white"></path> <path d="M1752.61 684.169L1760.41 697.588C1760.41 697.588 1743.34 715.187 1712.6 710.787L1715.96 724.668L1643.45 730.168C1643.45 730.168 1641.01 726.142 1637.21 714.23C1637.21 714.23 1605.8 710.93 1593.96 702.571L1599.47 687.865C1599.47 687.865 1623.91 693.013 1638.53 684.037C1638.53 684.037 1681.85 698.853 1711.52 682.938C1711.53 683.081 1732.82 690.538 1752.61 684.169Z" fill="white"></path> <path d="M1672.11 690.296C1672.11 690.296 1671.18 709.292 1674.8 723.712H1670.4C1670.4 723.712 1665.35 701.471 1667.71 689.988L1672.11 690.296Z" fill="#A5A8A8"></path> <path d="M1711.53 683.081C1711.53 683.081 1684 701.625 1638.55 684.181C1638.55 684.181 1635.65 683.763 1635.65 679.165C1635.65 679.165 1665.07 695.356 1713.48 678.153C1714.15 680.051 1713.32 682.15 1711.53 683.081Z" fill="#FCB333"></path> <path d="M1697.4 705.684C1695.17 705.684 1693.36 703.876 1693.36 701.647C1693.36 699.418 1695.17 697.61 1697.4 697.61C1699.63 697.61 1701.44 699.418 1701.44 701.647C1701.44 703.876 1699.63 705.684 1697.4 705.684Z" fill="#FCB333"></path> <path d="M1730.52 686.601L1727.06 712.13H1730.52V686.601Z" fill="#A5A8A8"></path> <path d="M1738.46 710.711L1735.66 712.13C1734.84 710.304 1730.53 686.601 1730.53 686.601L1738.46 710.711Z" fill="#A5A8A8"></path> <path d="M1624.02 688.68L1616.46 713.307L1619.88 713.879L1624.02 688.68Z" fill="#A5A8A8"></path> <path d="M1627.94 713.758L1624.94 714.704C1624.42 712.768 1624.02 688.68 1624.02 688.68L1627.94 713.758Z" fill="#A5A8A8"></path> <path d="M1489.21 724.96C1489.56 725.178 1489.97 725.317 1490.41 725.328L1582.67 738.068L1582.67 737.866L1489.21 724.96Z" fill="#72D4EA"></path> <path d="M1492.87 651.241C1492.71 651.201 1492.54 651.175 1492.36 651.171C1491.02 651.136 1489.91 652.192 1489.87 653.531L1488.06 722.841C1488.03 723.736 1488.5 724.521 1489.21 724.96L1582.67 737.866L1584.61 663.91L1492.87 651.241Z" fill="#72D4EA"></path> <path d="M1582.28 737.812L1582.25 738.011L1633.04 745.023L1633.07 744.825L1582.28 737.812Z" fill="#3CA2BA"></path> <path d="M1631.57 737.212L1583.28 730.544L1582.28 737.812L1633.07 744.825L1633.72 740.054C1633.91 738.675 1632.95 737.403 1631.57 737.212Z" fill="#3CA2BA"></path> <path d="M1536.71 682.464L1530.66 690.654L1521.82 685.936C1521.22 693.935 1525.34 702.91 1535.14 703.637C1545.41 704.4 1550.33 696.096 1550.92 688.098L1541.01 691.423L1536.71 682.464Z" fill="#50BDD6"></path> <path d="M1489.9 725.258L1582.25 738.011L1582.28 737.812L1489.91 725.057L1489.9 725.258Z" fill="#50BDD6"></path> <path d="M1490.2 719.204L1489.91 725.056L1582.28 737.812L1583.28 730.543L1491.89 717.923C1491.07 717.81 1490.31 718.383 1490.2 719.204Z" fill="#50BDD6"></path> <path d="M1582.67 738.068C1582.92 738.074 1583.16 738.031 1583.39 737.965L1581.47 737.699C1581.82 737.917 1582.22 738.056 1582.67 738.068Z" fill="#3CA2BA"></path> <path d="M1584.61 663.91C1583.28 663.875 1582.17 664.932 1582.13 666.27L1580.31 735.581C1580.29 736.475 1580.76 737.26 1581.47 737.699L1583.39 737.965C1584.38 737.683 1585.12 736.793 1585.15 735.708L1586.97 666.397C1587.01 665.058 1585.95 663.945 1584.61 663.91Z" fill="#3CA2BA"></path> <path d="M1595.37 734.684L1590.82 734.056C1590.56 734.021 1590.32 734.2 1590.29 734.457L1590.06 736.143C1590.02 736.399 1590.2 736.636 1590.46 736.672L1595.01 737.3C1595.26 737.335 1595.5 737.156 1595.53 736.899L1595.77 735.213C1595.8 734.957 1595.62 734.72 1595.37 734.684Z" fill="#157E9B"></path> <path d="M1603.46 735.802L1598.91 735.173C1598.65 735.138 1598.42 735.317 1598.38 735.574L1598.15 737.26C1598.11 737.516 1598.29 737.753 1598.55 737.789L1603.1 738.417C1603.36 738.453 1603.59 738.273 1603.63 738.016L1603.86 736.331C1603.9 736.074 1603.72 735.837 1603.46 735.802Z" fill="#157E9B"></path> <path d="M1490.41 725.328C1490.67 725.335 1490.91 725.292 1491.14 725.226L1489.21 724.96C1489.56 725.178 1489.97 725.317 1490.41 725.328Z" fill="#72D4EA"></path> <path d="M1492.36 651.171C1491.02 651.136 1489.91 652.192 1489.87 653.531L1488.06 722.842C1488.03 723.736 1488.5 724.521 1489.21 724.96L1491.14 725.226C1492.13 724.943 1492.87 724.054 1492.9 722.968L1494.72 653.657C1494.75 652.319 1493.7 651.206 1492.36 651.171Z" fill="#72D4EA"></path> <path d="M1619.99 734.433L1614.29 733.646C1614.07 733.615 1613.86 733.773 1613.83 734.001L1613.72 734.746L1620.25 735.647L1620.35 734.901C1620.38 734.674 1620.22 734.464 1619.99 734.433Z" fill="#157E9B"></path> <path d="M1628.03 735.543L1622.33 734.756C1622.11 734.725 1621.9 734.884 1621.87 735.111L1621.76 735.857L1628.29 736.757L1628.39 736.012C1628.42 735.784 1628.26 735.575 1628.03 735.543Z" fill="#157E9B"></path> <path d="M1619.99 734.433L1614.29 733.646C1614.07 733.615 1613.86 733.773 1613.83 734.001L1613.72 734.746L1620.25 735.647L1620.35 734.901C1620.38 734.674 1620.22 734.464 1619.99 734.433Z" fill="#157E9B"></path> <path d="M1628.03 735.543L1622.33 734.756C1622.11 734.725 1621.9 734.884 1621.87 735.111L1621.76 735.857L1628.29 736.757L1628.39 736.012C1628.42 735.784 1628.26 735.575 1628.03 735.543Z" fill="#157E9B"></path> <path d="M1603.91 732.212L1598.21 731.425C1597.98 731.394 1597.77 731.553 1597.74 731.78L1597.64 732.526L1604.16 733.426L1604.27 732.68C1604.3 732.453 1604.14 732.244 1603.91 732.212Z" fill="#157E9B"></path> <path d="M1611.95 733.323L1606.25 732.535C1606.03 732.504 1605.82 732.663 1605.78 732.89L1605.68 733.636L1612.2 734.537L1612.31 733.791C1612.34 733.564 1612.18 733.354 1611.95 733.323Z" fill="#157E9B"></path> <path d="M1595.87 731.102L1590.17 730.315C1589.94 730.283 1589.73 730.442 1589.7 730.669L1589.6 731.415L1596.12 732.316L1596.22 731.57C1596.26 731.343 1596.1 731.133 1595.87 731.102Z" fill="#157E9B"></path> <path d="M1489.21 724.96C1489.56 725.178 1489.97 725.317 1490.41 725.328L1582.67 738.068L1582.67 737.866L1489.21 724.96Z" fill="#72D4EA"></path> <path d="M1492.87 651.241C1492.71 651.201 1492.54 651.175 1492.36 651.171C1491.02 651.136 1489.91 652.192 1489.87 653.531L1488.06 722.841C1488.03 723.736 1488.5 724.521 1489.21 724.96L1582.67 737.866L1584.61 663.91L1492.87 651.241Z" fill="#72D4EA"></path> <path d="M1534.28 681.718L1528.23 689.908L1519.39 685.19C1518.8 693.188 1522.91 702.164 1532.71 702.891C1542.98 703.654 1547.9 695.35 1548.49 687.352L1538.58 690.676L1534.28 681.718Z" fill="#50BDD6"></path> <path d="M1489.2 724.959C1489.41 725.092 1489.65 725.196 1489.9 725.258L1582.77 738.097L1582.77 737.88L1489.2 724.959Z" fill="#50BDD6"></path> <path d="M1488.2 717.413L1488.05 722.841C1488.03 723.732 1488.49 724.519 1489.2 724.958L1582.77 737.879L1582.87 730.486L1488.2 717.413Z" fill="#50BDD6"></path> <path opacity="0.3" d="M1492.87 651.241C1492.71 651.201 1492.54 651.175 1492.36 651.171C1491.02 651.136 1489.91 652.192 1489.87 653.531L1489.88 653.531L1584.54 666.604L1584.61 663.91L1492.87 651.241Z" fill="white"></path> <path d="M1582.67 738.068L1633.04 745.023L1633.07 744.825L1581.47 737.699C1581.82 737.917 1582.22 738.056 1582.67 738.068Z" fill="#3CA2BA"></path> <path d="M1631.59 737.215L1585.28 730.82L1586.97 666.397C1587.01 665.058 1585.95 663.945 1584.61 663.91C1583.28 663.875 1582.17 664.932 1582.13 666.27L1580.31 735.581C1580.29 736.475 1580.76 737.261 1581.47 737.699L1633.07 744.825L1633.73 740.034C1633.92 738.666 1632.96 737.404 1631.59 737.215Z" fill="#3CA2BA"></path> <path d="M1594.8 734.606L1590.25 733.978C1589.99 733.942 1589.76 734.122 1589.72 734.379L1589.49 736.064C1589.45 736.321 1589.63 736.558 1589.89 736.593L1594.44 737.222C1594.7 737.257 1594.93 737.078 1594.97 736.821L1595.2 735.135C1595.24 734.878 1595.06 734.642 1594.8 734.606Z" fill="#2890AA"></path> <path d="M1602.84 735.717L1598.29 735.088C1598.04 735.053 1597.8 735.232 1597.76 735.489L1597.53 737.175C1597.5 737.431 1597.68 737.668 1597.93 737.704L1602.48 738.332C1602.74 738.368 1602.98 738.188 1603.01 737.931L1603.24 736.246C1603.28 735.989 1603.1 735.752 1602.84 735.717Z" fill="#2890AA"></path> <path d="M1264.5 130C1262.93 138.557 1261.69 139.857 1253 141.5C1261.56 143.006 1262.86 144.307 1264.5 153C1266.01 144.375 1267.31 143.143 1276 141.5C1267.31 139.857 1266.01 138.557 1264.5 130Z" fill="white"></path> <path d="M1743.5 684C1741.93 692.557 1740.69 693.857 1732 695.5C1740.56 697.006 1741.86 698.307 1743.5 707C1745.01 698.375 1746.31 697.143 1755 695.5C1746.31 693.857 1745.01 692.557 1743.5 684Z" fill="white"></path> <path d="M1540.5 209C1538.93 217.557 1537.69 218.857 1529 220.5C1537.56 222.006 1538.86 223.307 1540.5 232C1542.01 223.375 1543.31 222.143 1552 220.5C1543.31 218.857 1542.01 217.557 1540.5 209Z" fill="white"></path> <path d="M1726.5 223C1724.93 231.557 1723.69 232.857 1715 234.5C1723.56 236.006 1724.86 237.307 1726.5 246C1728.01 237.375 1729.31 236.143 1738 234.5C1729.31 232.857 1728.01 231.557 1726.5 223Z" fill="white"></path> <path d="M1393.5 685C1391.93 693.557 1390.69 694.857 1382 696.5C1390.56 698.006 1391.86 699.307 1393.5 708C1395.01 699.375 1396.31 698.143 1405 696.5C1396.31 694.857 1395.01 693.557 1393.5 685Z" fill="white"></path> <path d="M1517.5 447C1515.93 455.557 1514.69 456.857 1506 458.5C1514.56 460.006 1515.86 461.307 1517.5 470C1519.01 461.375 1520.31 460.143 1529 458.5C1520.31 456.857 1519.01 455.557 1517.5 447Z" fill="white"></path> <path d="M1786.5 389C1784.1 402.021 1782.23 404 1769 406.5C1782.02 408.792 1784 410.771 1786.5 424C1788.79 410.875 1790.77 409 1804 406.5C1790.77 404 1788.79 402.021 1786.5 389Z" fill="#FFC500"></path> <path d="M1218.5 270C1216.1 283.021 1214.23 285 1201 287.5C1214.02 289.792 1216 291.771 1218.5 305C1220.79 291.875 1222.77 290 1236 287.5C1222.77 285 1220.79 283.021 1218.5 270Z" fill="#FFC500"></path> <path d="M1465.5 769C1463.1 782.021 1461.23 784 1448 786.5C1461.02 788.792 1463 790.771 1465.5 804C1467.79 790.875 1469.77 789 1483 786.5C1469.77 784 1467.79 782.021 1465.5 769Z" fill="#FFC500"></path> <path d="M1093.5 713C1091.1 726.021 1089.23 728 1076 730.5C1089.02 732.792 1091 734.771 1093.5 748C1095.79 734.875 1097.77 733 1111 730.5C1097.77 728 1095.79 726.021 1093.5 713Z" fill="#FFC500"></path> <path d="M1591 392C1589.77 398.696 1588.8 399.714 1582 401C1588.7 402.179 1589.71 403.196 1591 410C1592.18 403.25 1593.2 402.286 1600 401C1593.2 399.714 1592.18 398.696 1591 392Z" fill="white" fill-opacity="0.35"></path> <path d="M1400 70C1398.77 76.6964 1397.8 77.7143 1391 79C1397.7 80.1786 1398.71 81.1964 1400 88C1401.18 81.25 1402.2 80.2857 1409 79C1402.2 77.7143 1401.18 76.6964 1400 70Z" fill="white" fill-opacity="0.35"></path> <path d="M1827 593C1825.77 599.696 1824.8 600.714 1818 602C1824.7 603.179 1825.71 604.196 1827 611C1828.18 604.25 1829.2 603.286 1836 602C1829.2 600.714 1828.18 599.696 1827 593Z" fill="white" fill-opacity="0.35"></path> <path d="M1419 591C1417.77 597.696 1416.8 598.714 1410 600C1416.7 601.179 1417.71 602.196 1419 609C1420.18 602.25 1421.2 601.286 1428 600C1421.2 598.714 1420.18 597.696 1419 591Z" fill="white" fill-opacity="0.35"></path> <path d="M1120 535C1118.77 541.696 1117.8 542.714 1111 544C1117.7 545.179 1118.71 546.196 1120 553C1121.18 546.25 1122.2 545.286 1129 544C1122.2 542.714 1121.18 541.696 1120 535Z" fill="white" fill-opacity="0.35"></path> <path d="M1658 94C1656.77 100.696 1655.8 101.714 1649 103C1655.7 104.179 1656.71 105.196 1658 112C1659.18 105.25 1660.2 104.286 1667 103C1660.2 101.714 1659.18 100.696 1658 94Z" fill="white" fill-opacity="0.35"></path> <path d="M1258 776C1256.77 782.696 1255.8 783.714 1249 785C1255.7 786.179 1256.71 787.196 1258 794C1259.18 787.25 1260.2 786.286 1267 785C1260.2 783.714 1259.18 782.696 1258 776Z" fill="white" fill-opacity="0.35"></path> <path d="M1318 548C1316.77 554.696 1315.8 555.714 1309 557C1315.7 558.179 1316.71 559.196 1318 566C1319.18 559.25 1320.2 558.286 1327 557C1320.2 555.714 1319.18 554.696 1318 548Z" fill="white" fill-opacity="0.35"></path> <path d="M1303 635C1301.08 645.417 1299.58 647 1289 649C1299.42 650.833 1301 652.417 1303 663C1304.83 652.5 1306.42 651 1317 649C1306.42 647 1304.83 645.417 1303 635Z" fill="white" fill-opacity="0.35"></path> <path d="M1689.74 342.106C1689.74 342.106 1700.62 364.907 1680.11 397.207C1678.85 396.714 1678.01 395.492 1678.02 394.132C1678.04 389.773 1676.69 379.91 1665.14 373.494C1649.52 364.823 1689.74 342.106 1689.74 342.106Z" fill="#BA6CFF"></path> <path d="M1646.43 325.238C1646.43 325.238 1623.21 334.76 1616.97 372.616C1618.23 373.109 1619.66 372.768 1620.56 371.756C1623.45 368.512 1630.99 362.112 1643.82 365.192C1661.15 369.354 1646.43 325.238 1646.43 325.238Z" fill="#BA6CFF"></path> <path d="M1682.82 294.077C1682.93 293.946 1683.04 293.821 1683.15 293.692C1683.25 293.802 1683.36 293.914 1683.47 294.027C1683.24 294.037 1683.03 294.055 1682.82 294.077Z" fill="#556150"></path> <path d="M1683.39 293.784C1683.38 293.953 1683.38 294.119 1683.37 294.289C1683.23 294.132 1683.08 293.974 1682.92 293.812C1683.08 293.805 1683.24 293.797 1683.39 293.784Z" fill="#556150"></path> <path d="M1639.05 355.71C1639 356.105 1638.94 356.512 1638.89 356.911C1639.97 359.164 1646.77 363.193 1655.48 366.585C1664.19 369.976 1671.91 371.605 1674.21 370.668C1674.43 370.333 1674.66 369.997 1674.88 369.663C1691.67 344.106 1697.69 321.695 1699.02 304.311C1696.02 305.31 1688.65 304.011 1680.55 300.857C1672.45 297.702 1666.12 293.664 1664.56 290.892C1654.01 304.684 1643.58 325.375 1639.05 355.71ZM1684.92 323.328C1682.54 329.568 1675.57 332.661 1669.34 330.237C1663.12 327.813 1660 320.79 1662.38 314.55C1664.76 308.31 1671.74 305.217 1677.96 307.641C1684.19 310.064 1687.3 317.088 1684.92 323.328Z" fill="white"></path> <path d="M1664.56 290.893C1665.36 289.855 1666.15 288.855 1666.95 287.894L1667.27 287.508C1669.86 290.104 1675.64 293.634 1682.31 296.232C1688.98 298.83 1695.61 300.134 1699.26 299.967L1699.24 300.472C1699.19 301.723 1699.12 303.004 1699.02 304.312C1696.02 305.311 1688.65 304.012 1680.55 300.858C1672.45 297.703 1666.12 293.665 1664.56 290.893Z" fill="#9947E2"></path> <path d="M1671.05 283.234C1674.97 279.042 1678.74 275.758 1682.05 273.235C1684.14 274.92 1686.64 276.394 1689.46 277.493C1692.28 278.593 1695.11 279.191 1697.78 279.36C1698.56 283.474 1699.17 288.468 1699.3 294.238C1699.34 296.07 1699.33 297.98 1699.26 299.966C1699.11 299.979 1698.96 299.987 1698.8 299.994C1695.15 300.161 1688.98 298.829 1682.31 296.231C1675.64 293.633 1670.19 290.438 1667.59 287.842C1667.48 287.73 1667.37 287.618 1667.27 287.507C1668.54 285.988 1669.8 284.566 1671.05 283.234Z" fill="#BA6CFF"></path> <path d="M1682.05 273.235C1688.96 267.969 1693.84 266.008 1693.84 266.008C1693.84 266.008 1696.16 270.773 1697.78 279.36C1695.11 279.192 1692.28 278.593 1689.46 277.494C1686.64 276.394 1684.14 274.92 1682.05 273.235Z" fill="#9947E2"></path> <path d="M1669.37 376.353L1669.39 376.36L1665.58 381.918C1664.84 383.855 1658.03 383.004 1650.36 380.018C1642.69 377.032 1637.08 373.042 1637.81 371.106L1638.68 364.402L1638.7 364.41C1640.51 366.646 1646.13 369.928 1653.16 372.668C1660.2 375.408 1666.54 376.785 1669.37 376.353Z" fill="#8533CC"></path> <path d="M1655.48 366.585C1664.19 369.976 1671.91 371.606 1674.21 370.668C1673.14 372.28 1672.03 373.901 1670.87 375.538C1670.71 375.967 1670.17 376.23 1669.37 376.353C1666.54 376.785 1660.2 375.408 1653.16 372.668C1646.13 369.928 1640.51 366.646 1638.7 364.41C1638.19 363.773 1637.96 363.216 1638.13 362.786C1638.35 360.786 1638.61 358.834 1638.89 356.911C1639.97 359.165 1646.77 363.194 1655.48 366.585Z" fill="#9947E2"></path> <path d="M1670.61 326.909C1666.22 325.199 1664.03 320.245 1665.7 315.844C1667.38 311.443 1672.3 309.261 1676.69 310.97C1681.08 312.68 1683.28 317.634 1681.6 322.035C1679.92 326.436 1675 328.618 1670.61 326.909Z" fill="#4DD1FF"></path> <path d="M1655.82 338.14L1649.98 353.432C1648.85 356.406 1650.81 359.965 1654.35 361.341L1659.8 363.467C1663.34 364.843 1667.16 363.536 1668.29 360.562L1674.12 345.269C1675.26 342.295 1673.29 338.736 1669.76 337.36L1664.3 335.234C1660.77 333.858 1656.95 335.166 1655.82 338.14Z" fill="#C6D9E1"></path> <path d="M1684.92 323.328C1687.3 317.089 1684.19 310.065 1677.96 307.641C1671.74 305.218 1664.76 308.311 1662.38 314.551C1660.01 320.791 1663.12 327.814 1669.34 330.238C1675.57 332.662 1682.54 329.568 1684.92 323.328ZM1681.6 322.035C1679.92 326.437 1675 328.619 1670.61 326.909C1666.22 325.199 1664.03 320.245 1665.71 315.844C1667.38 311.443 1672.3 309.261 1676.69 310.97C1681.08 312.68 1683.28 317.634 1681.6 322.035Z" fill="#32288E"></path> </g> <defs> <clipPath id="clip0"> <rect width="2240" height="1000" fill="white"></rect> </clipPath> </defs> </svg> 