<?xml version="1.0" encoding="UTF-8"?> <svg xmlns="http://www.w3.org/2000/svg" width="160" height="24" viewBox="0 0 160 24" fill="none"> <path d="M7.0543 20C5.99236 20 5.02145 19.8368 4.14156 19.5104C3.27684 19.1692 2.53348 18.6871 1.91149 18.064C1.30467 17.4261 0.83438 16.6472 0.500628 15.7274C0.166876 14.8076 0 13.7617 0 12.5897V11.4325C0 10.2754 0.166876 9.2369 0.500628 8.31711C0.84955 7.39731 1.32742 6.62587 1.93424 6.00278C2.55624 5.36486 3.29959 4.87529 4.16431 4.53407C5.0442 4.19286 6.00753 4.02225 7.0543 4.02225C8.11624 4.02225 9.07957 4.19286 9.94429 4.53407C10.8242 4.86045 11.5675 5.34261 12.1744 5.98053C12.7964 6.61845 13.2742 7.39731 13.608 8.31711C13.9417 9.22207 14.1086 10.2605 14.1086 11.4325V12.5897C14.1086 13.7469 13.9341 14.7853 13.5852 15.7051C13.2515 16.6249 12.7736 17.4038 12.1516 18.0417C11.5448 18.6796 10.8014 19.1692 9.92153 19.5104C9.05681 19.8368 8.10107 20 7.0543 20ZM7.0543 17.5076C8.29829 17.5076 9.30713 17.0997 10.0808 16.2837C10.8545 15.4529 11.2414 14.2216 11.2414 12.5897V11.4325C11.2414 10.6314 11.1352 9.92675 10.9228 9.3185C10.7256 8.69541 10.4373 8.18359 10.0581 7.78303C9.69398 7.36764 9.25403 7.0561 8.73823 6.8484C8.22243 6.62587 7.66112 6.5146 7.0543 6.5146C5.79515 6.5146 4.77872 6.93 4.00502 7.76078C3.2465 8.57673 2.86723 9.80065 2.86723 11.4325V12.5897C2.86723 14.2068 3.25408 15.4307 4.02778 16.2615C4.81665 17.0923 5.82549 17.5076 7.0543 17.5076Z" fill="#1CC1BB"></path> <path d="M16.6109 8.67316H18.6816L18.8864 9.91933C19.736 8.95503 20.9117 8.47288 22.4136 8.47288C23.8093 8.47288 24.894 8.88085 25.6677 9.6968C26.4565 10.4979 26.851 11.7144 26.851 13.3463V19.7997H24.2113V13.3463C24.2113 12.5304 24.0065 11.9147 23.5969 11.4993C23.2024 11.0839 22.6563 10.8762 21.9585 10.8762C21.1393 10.8762 20.4869 11.0913 20.0015 11.5216C19.5312 11.9518 19.2809 12.5229 19.2505 13.235V19.7997H16.6109V8.67316Z" fill="#1CC1BB"></path> <path d="M33.4318 19.7997C32.2334 19.7997 31.308 19.4882 30.6556 18.8651C30.0185 18.2272 29.6999 17.3148 29.6999 16.128V4.22253H32.3396V15.8609C32.3396 16.4395 32.4685 16.8623 32.7264 17.1293C32.9843 17.3964 33.3787 17.5299 33.9097 17.5299H34.4786V19.7997H33.4318Z" fill="#1CC1BB"></path> <path d="M36.3026 8.67316H38.9423V19.7997H36.3026V8.67316ZM37.6225 7.33797C37.137 7.33797 36.7274 7.1822 36.3936 6.87065C36.0751 6.54427 35.9158 6.14372 35.9158 5.66898C35.9158 5.19425 36.0751 4.80111 36.3936 4.48957C36.7274 4.16319 37.137 4 37.6225 4C38.0927 4 38.4948 4.16319 38.8285 4.48957C39.1623 4.80111 39.3291 5.19425 39.3291 5.66898C39.3291 6.14372 39.1623 6.54427 38.8285 6.87065C38.4948 7.1822 38.0927 7.33797 37.6225 7.33797Z" fill="#1CC1BB"></path> <path d="M42.0111 8.67316H44.0819L44.2867 9.91933C45.1363 8.95503 46.312 8.47288 47.8139 8.47288C49.2096 8.47288 50.2942 8.88085 51.0679 9.6968C51.8568 10.4979 52.2512 11.7144 52.2512 13.3463V19.7997H49.6116V13.3463C49.6116 12.5304 49.4068 11.9147 48.9972 11.4993C48.6027 11.0839 48.0566 10.8762 47.3587 10.8762C46.5395 10.8762 45.8872 11.0913 45.4017 11.5216C44.9315 11.9518 44.6811 12.5229 44.6508 13.235V19.7997H42.0111V8.67316Z" fill="#1CC1BB"></path> <path d="M59.7651 20C58.9459 20 58.2101 19.8813 57.5578 19.644C56.9055 19.3917 56.3442 19.0357 55.8739 18.5758C55.4036 18.1011 55.0395 17.5299 54.7816 16.8623C54.5389 16.1947 54.4175 15.4381 54.4175 14.5925V13.8804C54.4175 13.0348 54.5389 12.2782 54.7816 11.6106C55.0395 10.943 55.4036 10.3792 55.8739 9.91933C56.3442 9.4446 56.9055 9.08855 57.5578 8.85118C58.2101 8.59898 58.9459 8.47288 59.7651 8.47288C61.4187 8.47288 62.7234 8.96987 63.6791 9.96384C64.6348 10.9578 65.1127 12.382 65.1127 14.2364V15.1043H57.0572C57.133 16.0389 57.3985 16.714 57.8536 17.1293C58.3087 17.5299 58.9459 17.7302 59.7651 17.7302C60.5691 17.7302 61.1532 17.5967 61.5173 17.3296C61.8966 17.0478 62.1469 16.7214 62.2682 16.3505H64.9989C64.8776 16.8697 64.688 17.3519 64.43 17.7969C64.1721 18.242 63.8308 18.6277 63.406 18.9541C62.9813 19.2805 62.4655 19.5401 61.8586 19.733C61.2518 19.911 60.554 20 59.7651 20ZM59.7651 10.7427C58.9914 10.7427 58.3846 10.9281 57.9446 11.299C57.5047 11.6699 57.224 12.2559 57.1027 13.057H62.4275C62.3213 12.2262 62.0407 11.6328 61.5856 11.2768C61.1456 10.9207 60.5388 10.7427 59.7651 10.7427Z" fill="#1CC1BB"></path> <path d="M71.4852 20C69.9227 20 68.7621 19.6662 68.0036 18.9986C67.2602 18.3162 66.8279 17.3593 66.7065 16.128H69.4827C69.6041 16.7659 69.8013 17.2184 70.0744 17.4854C70.3626 17.7376 70.8329 17.8637 71.4852 17.8637C72.2589 17.8637 72.7823 17.7599 73.0554 17.5522C73.3436 17.3296 73.4877 17.0403 73.4877 16.6843C73.4877 16.2837 73.3209 15.9796 72.9871 15.7719C72.6685 15.5642 72.2665 15.401 71.7811 15.2823C71.2956 15.1488 70.7722 15.0301 70.2109 14.9263C69.6496 14.8076 69.1262 14.637 68.6408 14.4145C68.1553 14.1771 67.7457 13.8581 67.4119 13.4576C67.0934 13.0422 66.9341 12.471 66.9341 11.7441C66.9341 11.2842 67.0251 10.854 67.2071 10.4534C67.3892 10.0529 67.6698 9.71164 68.0491 9.42976C68.4284 9.13306 68.8987 8.90311 69.46 8.73992C70.0365 8.56189 70.7115 8.47288 71.4852 8.47288C72.9416 8.47288 74.0339 8.80668 74.7621 9.47427C75.4903 10.127 75.915 11.0468 76.0364 12.2337H73.2602C73.1388 11.6254 72.9492 11.2026 72.6913 10.9652C72.4486 10.7279 72.0465 10.6092 71.4852 10.6092C70.8329 10.6092 70.3702 10.713 70.0971 10.9207C69.8392 11.1284 69.7103 11.3806 69.7103 11.6773C69.7103 12.0482 69.8696 12.3227 70.1882 12.5007C70.5219 12.6639 70.9315 12.8048 71.417 12.9235C71.9024 13.0274 72.4258 13.1386 72.9871 13.2573C73.5484 13.3612 74.0718 13.5392 74.5573 13.7914C75.0427 14.0287 75.4447 14.37 75.7633 14.815C76.0971 15.2601 76.264 15.8609 76.264 16.6175C76.264 17.1071 76.1654 17.5596 75.9681 17.975C75.7861 18.3904 75.4978 18.7464 75.1034 19.0431C74.7241 19.3398 74.2311 19.5772 73.6243 19.7552C73.0326 19.9184 72.3196 20 71.4852 20Z" fill="#1CC1BB"></path> <path d="M83.2098 20C82.3906 20 81.6472 19.8813 80.9797 19.644C80.3274 19.3917 79.7661 19.0357 79.2958 18.5758C78.8407 18.1011 78.4842 17.5299 78.2263 16.8623C77.9836 16.1947 77.8622 15.4381 77.8622 14.5925V13.8804C77.8622 13.0496 77.9836 12.3004 78.2263 11.6328C78.4842 10.9652 78.8483 10.4015 79.3186 9.94159C79.7889 9.46685 80.3502 9.10338 81.0025 8.85118C81.67 8.59898 82.4058 8.47288 83.2098 8.47288C84.651 8.47288 85.7661 8.82151 86.5549 9.51878C87.359 10.216 87.8747 11.121 88.1023 12.2337H85.2806C85.1592 11.8331 84.9089 11.5067 84.5296 11.2545C84.1504 11.0023 83.6725 10.8762 83.096 10.8762C82.7623 10.8762 82.4437 10.9356 82.1403 11.0542C81.852 11.1581 81.5942 11.3361 81.3666 11.5883C81.139 11.8257 80.957 12.1372 80.8204 12.5229C80.6991 12.8938 80.6384 13.3463 80.6384 13.8804V14.5925C80.6384 15.1117 80.7067 15.5642 80.8432 15.9499C80.9797 16.3208 81.1618 16.6324 81.3893 16.8846C81.6169 17.1219 81.8748 17.3 82.163 17.4186C82.4665 17.5373 82.7775 17.5967 83.096 17.5967C83.7484 17.5967 84.2414 17.4557 84.5752 17.1739C84.9241 16.892 85.1592 16.5433 85.2806 16.128H88.1023C87.8747 17.3 87.359 18.242 86.5549 18.9541C85.7661 19.6514 84.651 20 83.2098 20Z" fill="#1CC1BB"></path> <path d="M90.0339 4.22253H92.6736V9.63004C93.4321 8.8586 94.4864 8.47288 95.8366 8.47288C97.2323 8.47288 98.317 8.88085 99.0907 9.6968C99.8796 10.4979 100.274 11.7144 100.274 13.3463V19.7997H97.6343V13.3463C97.6343 12.5304 97.4295 11.9147 97.0199 11.4993C96.6255 11.0839 96.0793 10.8762 95.3815 10.8762C94.5623 10.8762 93.91 11.0913 93.4245 11.5216C92.9542 11.9518 92.7039 12.5229 92.6736 13.235V19.7997H90.0339V4.22253Z" fill="#1CC1BB"></path> <path d="M107.902 20C106.187 20 104.845 19.5253 103.874 18.5758C102.918 17.6263 102.44 16.2986 102.44 14.5925V13.8804C102.44 13.0348 102.562 12.2782 102.804 11.6106C103.062 10.943 103.426 10.3792 103.897 9.91933C104.382 9.4446 104.959 9.08855 105.626 8.85118C106.294 8.59898 107.052 8.47288 107.902 8.47288C109.616 8.47288 110.951 8.94761 111.907 9.89708C112.878 10.8465 113.363 12.1743 113.363 13.8804V14.5925C113.363 15.4381 113.234 16.1947 112.976 16.8623C112.733 17.5299 112.369 18.1011 111.884 18.5758C111.414 19.0357 110.837 19.3917 110.154 19.644C109.487 19.8813 108.736 20 107.902 20ZM107.902 17.5967C108.766 17.5967 109.426 17.3519 109.881 16.8623C110.352 16.3727 110.587 15.6161 110.587 14.5925V13.8804C110.587 12.8716 110.344 12.1224 109.859 11.6328C109.388 11.1284 108.736 10.8762 107.902 10.8762C107.037 10.8762 106.369 11.121 105.899 11.6106C105.444 12.1001 105.216 12.8567 105.216 13.8804V14.5925C105.216 15.6013 105.452 16.3579 105.922 16.8623C106.407 17.3519 107.067 17.5967 107.902 17.5967Z" fill="#1CC1BB"></path> <path d="M120.413 20C118.699 20 117.356 19.5253 116.385 18.5758C115.429 17.6263 114.951 16.2986 114.951 14.5925V13.8804C114.951 13.0348 115.073 12.2782 115.316 11.6106C115.573 10.943 115.938 10.3792 116.408 9.91933C116.893 9.4446 117.47 9.08855 118.137 8.85118C118.805 8.59898 119.563 8.47288 120.413 8.47288C122.127 8.47288 123.462 8.94761 124.418 9.89708C125.389 10.8465 125.874 12.1743 125.874 13.8804V14.5925C125.874 15.4381 125.745 16.1947 125.487 16.8623C125.245 17.5299 124.881 18.1011 124.395 18.5758C123.925 19.0357 123.348 19.3917 122.666 19.644C121.998 19.8813 121.247 20 120.413 20ZM120.413 17.5967C121.278 17.5967 121.938 17.3519 122.393 16.8623C122.863 16.3727 123.098 15.6161 123.098 14.5925V13.8804C123.098 12.8716 122.855 12.1224 122.37 11.6328C121.9 11.1284 121.247 10.8762 120.413 10.8762C119.548 10.8762 118.881 11.121 118.41 11.6106C117.955 12.1001 117.728 12.8567 117.728 13.8804V14.5925C117.728 15.6013 117.963 16.3579 118.433 16.8623C118.919 17.3519 119.579 17.5967 120.413 17.5967Z" fill="#1CC1BB"></path> <path d="M131.877 19.7997C130.679 19.7997 129.753 19.4882 129.101 18.8651C128.464 18.2272 128.145 17.3148 128.145 16.128V4.22253H130.785V15.8609C130.785 16.4395 130.914 16.8623 131.172 17.1293C131.43 17.3964 131.824 17.5299 132.355 17.5299H132.924V19.7997H131.877Z" fill="#1CC1BB"></path> <path d="M137.133 20C136.602 20 136.162 19.8294 135.813 19.4882C135.479 19.1321 135.313 18.7093 135.313 18.2197C135.313 17.7302 135.479 17.3148 135.813 16.9736C136.162 16.6175 136.602 16.4395 137.133 16.4395C137.664 16.4395 138.096 16.6175 138.43 16.9736C138.779 17.3148 138.954 17.7302 138.954 18.2197C138.954 18.7093 138.779 19.1321 138.43 19.4882C138.096 19.8294 137.664 20 137.133 20Z" fill="#1CC1BB"></path> <path d="M141.457 8.67316H143.527L143.732 9.91933C144.127 9.4446 144.612 9.08855 145.189 8.85118C145.78 8.59898 146.433 8.47288 147.146 8.47288H148.283V10.8762H147.146C146.099 10.8762 145.325 11.0987 144.825 11.5438C144.339 11.9889 144.096 12.5897 144.096 13.3463V19.7997H141.457V8.67316Z" fill="#1CC1BB"></path> <path d="M154.311 20C152.976 20 151.922 19.5994 151.148 18.7983C150.374 17.9824 149.987 16.7585 149.987 15.1266V8.67316H152.627V15.1266C152.627 15.9425 152.824 16.5582 153.219 16.9736C153.613 17.389 154.129 17.5967 154.766 17.5967C155.54 17.5967 156.154 17.3815 156.609 16.9513C157.08 16.5211 157.33 15.9499 157.36 15.2378V8.67316H160V19.7997H157.929L157.724 18.5758C157.315 19.0357 156.822 19.3917 156.245 19.644C155.669 19.8813 155.024 20 154.311 20Z" fill="#1CC1BB"></path> </svg> 