<?xml version="1.0" encoding="UTF-8"?> <svg xmlns="http://www.w3.org/2000/svg" width="40" height="40" viewBox="0 0 40 40" fill="none"> <circle opacity="0.16" cx="20" cy="20" r="20" fill="#1CC1BB"></circle> <path d="M25 9C22.3999 9 20.1802 10.6764 19.3516 13H13C11.9 13 11 13.9 11 15V23C11 24.1 11.9 25 13 25H27C28.1 25 29 24.1 29 23V19.4551C30.2235 18.3549 31 16.7662 31 15C31 11.6981 28.3019 9 25 9ZM25 11C26.0039 11 26.9057 11.377 27.6055 11.9805L25 14.5859L24.707 14.293C24.6149 14.197 24.5045 14.1204 24.3824 14.0676C24.2603 14.0148 24.1288 13.9869 23.9958 13.9856C23.8627 13.9842 23.7308 14.0094 23.6076 14.0597C23.4844 14.11 23.3725 14.1844 23.2784 14.2784C23.1844 14.3725 23.11 14.4844 23.0597 14.6076C23.0094 14.7308 22.9842 14.8627 22.9856 14.9958C22.9869 15.1288 23.0148 15.2603 23.0676 15.3824C23.1204 15.5045 23.197 15.6149 23.293 15.707L25 17.4141L28.7559 13.6582C28.9049 14.0789 29 14.5261 29 15C29 17.221 27.221 19 25 19C22.779 19 21 17.221 21 15C21 12.779 22.779 11 25 11ZM11 27C10.448 27 10 27.448 10 28C10 28.552 10.448 29 11 29H29C29.552 29 30 28.552 30 28C30 27.448 29.552 27 29 27H11Z" fill="#1CC1BB"></path> </svg> 