<?xml version="1.0" encoding="UTF-8"?> <svg xmlns="http://www.w3.org/2000/svg" data-name="Layer 1" viewBox="0 0 141.73 141.73"> <defs> <clipPath id="a"> <path fill="none" d="M0 0h141.73v141.73H0z"></path> </clipPath> </defs> <path fill="#edf7fa" d="M0 0h141.73v141.73H0z"></path> <g clip-path="url(#a)"> <path d="M54.06 88.54c-15.72 2-20.54-8.88-20.54-8.88-1 4.53.66 6.7.66 6.7s-10.66-4.28-11.73-21.25c-1.39-21.92 18.22-43.25 31.32-44.65 9.09-1 10.83 4.24 10.83 4.24s5.29-6.37 15-4.39C94 23.25 111 40.56 111 66.18c0 25.4-31 40.44-31 40.44z" fill="#625475"></path> <path d="M109.66 208.93s36.63-40.28 36.63-45.83-10.13-18.2-27.29-30.33c-5.48-6.6-13.62-15.09-21.83-17.52l-5.72 23.66s22.36 13.32 35.31 25.45c-5.67 10.5-15.28 26.78-22.24 34.22 0 0-3.38 8.14 5.14 10.35zM36 115.25c-4.23 1.15-9.76 11.84-14.4 23.45-7.48 16-14.75 33.67-14.72 37.07l.63 55.68 10.72 1.23 4.22-53.58 18.74-39.22zM57.73 88.36h17.51v23.26H57.73z" fill="#e9b48f"></path> <path d="M57.73 102.37a13.51 13.51 0 0 0 17.51 0v-14.1H57.73zM88.67 63.87s5-5.08 10-.67 2.82 20.67-12.34 19.88zM44.3 63.89s-5-5.09-10-.68-2.84 20.67 12.31 19.88z" fill="#d19476"></path> <path d="M91.79 67.91c1-25.91-.49-38.72-25.12-38.72S40.56 42 41.55 67.91c-3.46 19 8.21 26.61 12.91 29.93 2.58 1.83 6.74 5.77 12.21 5.77s9.62-3.94 12.21-5.77c4.7-3.32 16.36-10.96 12.91-29.93z" fill="#e9b48f"></path> <path d="M46.36 64.25c0 .07-.07.14-.11.2a2.44 2.44 0 0 1-2.83.72A2 2 0 0 0 45.86 67a4.82 4.82 0 0 0 3 4l8.17-7.4c-1.61-2.41-7.97-3.73-10.67.65z" fill="#2b2a2c"></path> <path d="M60.05 70.09a9.19 9.19 0 0 1-6.82 2.35c-3.63-.17-4.92-2.07-4.92-2.07-2.85-3.69-.49-7.56 3.7-8.15 3.3-.46 7.35 1.29 8.04 7.87z" fill="#fff"></path> <path d="M57.49 66.78A3.75 3.75 0 0 0 53 64a1.93 1.93 0 0 1 .53 1A2 2 0 0 1 52 67.32a2.07 2.07 0 0 1-1.85-.55 3.4 3.4 0 0 0 0 1.49 3.73 3.73 0 0 0 4.4 2.74 3.62 3.62 0 0 0 2.94-4.22z" fill="#625475"></path> <path d="M87 64.25c0 .07.07.14.11.2a2.44 2.44 0 0 0 2.83.72A2 2 0 0 1 87.48 67a4.82 4.82 0 0 1-3 4l-8.17-7.4c1.6-2.41 7.97-3.73 10.69.65z" fill="#2b2a2c"></path> <path d="M73.29 70.09a9.17 9.17 0 0 0 6.82 2.35c3.63-.17 4.92-2.07 4.92-2.07 2.85-3.69.49-7.56-3.7-8.15-3.33-.46-7.33 1.29-8.04 7.87z" fill="#fff"></path> <path d="M83.11 66.78A3.74 3.74 0 0 0 78.67 64a1.93 1.93 0 0 1 .53 1 2 2 0 0 1-1.57 2.34 2.08 2.08 0 0 1-1.86-.55 3.56 3.56 0 0 0 0 1.49 3.74 3.74 0 0 0 4.4 2.72 3.62 3.62 0 0 0 2.94-4.22z" fill="#625475"></path> <path d="M71 75.48c-1-.46-1.51-.32-3.12-.5-1-.12-1.73-1-1.93-2.92-.7 2.48 0 3.49.83 4 1.32.75 2.73.13 3.36 1 .42.6.88 2.06-2.44 4.48 5.81-2.1 4.53-5.49 3.3-6.06z" fill="#d19476"></path> <path d="M46.61 58.6s2.39-4.06 9.29-1.85a2.53 2.53 0 0 1 1.81 2.68c-7.46-3.03-11.1-.83-11.1-.83zM86.72 58.6s-2.35-4.06-9.29-1.85a2.53 2.53 0 0 0-1.8 2.68c7.45-3.03 11.09-.83 11.09-.83z" fill="#625475"></path> <path d="M60.12 75.75c0 2.73-4.78 5-9.47 5s-8.48-2.22-8.48-5 3.8-5 8.48-5 9.47 2.25 9.47 5zM73.43 75.75c0 2.73 4.78 5 9.46 5s8.48-2.22 8.48-5-3.79-5-8.48-5-9.46 2.25-9.46 5zM66.48 107.99l-30.46 7.26 6.22 73.81H90.73l6.22-73.81-30.47-7.26z" fill="#e9b48f"></path> <path d="M97.87 114l-13.71-3.8a17.95 17.95 0 0 1-31.45 0s-13.56 3.7-13.58 3.8c-.28.61-6.4 49.92 2.22 52.48h54.13c9.92-2.6 2.37-52.1 2.39-52.48z" fill="#f1f0f0"></path> <path d="M66.35 88l-7.78-.75A9.15 9.15 0 0 0 67 92.12a8.83 8.83 0 0 0 8.37-5.83l-6.37 2z" fill="#d07060"></path> <path d="M57.73 86.58s5.28 2.89 9.45 2.58 9.07-3.46 9.07-3.46a74.47 74.47 0 0 1-9.38.93c-5.3.18-9.14-.05-9.14-.05z" fill="#d07060"></path> <path d="M56.45 85.64s2.93 4 10.83 3.69c7-.31 10.23-4.74 10.23-4.74-11.19 7.88-21.06 1.05-21.06 1.05z" fill="#b44d43"></path> <path d="M66.48 42.07c.7 2 2.39 14.73-2.22 20.94-.75-6.58-2.27-12.7-5.69-17.69-5.72 7-11.51 11.4-17.36 13.41l-5.84-18.41 16.8-14.25 14.5 2.13 16.52-1.13 12.37 11.25L92 57a183.69 183.69 0 0 1-25.52-14.93zM92.63 91.58s17.48 14.84-7.63 30.2c0 0-15.71-13.09 7.63-30.2z" fill="#625475"></path> <path d="M77.86 99.26s-15.8 9.68 3.71 29.93c0 0 16.25-13.13-3.71-29.93z" fill="#625475"></path> <path d="M90.42 115.93s7.61 16.4-11.79 23.39c0 0-9.48-13.87 11.79-23.39z" fill="#625475"></path> <path d="M77.6 124.23s-11.15 9.77 2.69 20.53c0 0 9.62-9.87-2.69-20.53z" fill="#625475"></path> <path d="M88.17 95.23s-2.8 3.09-4 10.71l-2.64-3.22a12.43 12.43 0 0 1 6.64-7.49zM86.53 113.2s-4.44 1.8-6.45 7.8c0 0-1.99-8 6.45-7.8z" fill="#594a6a"></path> <path d="M77.56 138.56s-9.35 3.78-4.34 13.22 2.21 12.88 2.21 12.88 8.54-3.4 5.95-12.27l2.17 3.52s5.58-6.77-1.36-15.42z" fill="#625475"></path> <path d="M81.74 135.66s-3-3-2.85-6.14c0 0-2.15 4.43.57 8.44z" fill="#594a6a"></path> </g> </svg> 