<?xml version="1.0" encoding="UTF-8"?> <svg xmlns="http://www.w3.org/2000/svg" width="80" height="80" viewBox="0 0 80 80" fill="none"> <circle cx="40" cy="40" r="40" fill="#FF495C"></circle> <rect x="23.2861" y="18.9998" width="8" height="13" rx="2" transform="rotate(-30 23.2861 18.9998)" fill="#D80332"></rect> <rect x="49.7866" y="14.9998" width="8" height="13" rx="2" transform="rotate(30 49.7866 14.9998)" fill="#D80332"></rect> <path d="M28 62.0002C25.7909 62.0002 24 60.2094 24 58.0002V34.0002C24 25.1637 31.1634 18.0002 40 18.0002V18.0002C48.8366 18.0002 56 25.1637 56 34.0002V60.0002C56 61.1048 55.1046 62.0002 54 62.0002H28Z" fill="#F899A1"></path> <path fill-rule="evenodd" clip-rule="evenodd" d="M47 29.3643C47 33.5134 44.8025 38.0002 39.5 38.0002C34.4363 38.0002 32 33.5134 32 29.3643L36.7293 31.4871L39.5 27.0002L42.0318 31.4871L47 29.3643Z" fill="#FFEBF0"></path> <rect x="30" y="48.0002" width="20" height="8" rx="2" fill="#FFEBF0"></rect> <path d="M30 50.0002C30 48.8957 30.8954 48.0002 32 48.0002H48C49.1046 48.0002 50 48.8957 50 50.0002V52.0002H30V50.0002Z" fill="#FF495C"></path> </svg> 