<?xml version="1.0" encoding="UTF-8"?> <svg xmlns="http://www.w3.org/2000/svg" width="40" height="40" viewBox="0 0 40 40" fill="none"> <circle opacity="0.16" cx="20" cy="20" r="20" fill="#EB5757"></circle> <path fill-rule="evenodd" clip-rule="evenodd" d="M14.3926 11.6777C14.9078 10.669 15.9161 10.0528 16.9941 10.0039C17.3535 9.98763 17.7208 10.0342 18.0801 10.1504L20 10.7715L21.9219 10.1504C23.3589 9.6844 24.9204 10.3327 25.6074 11.6777L26.5254 13.4746L28.3222 14.3926C29.6672 15.0796 30.3146 16.6431 29.8496 18.0801L29.2285 20L29.8496 21.9219C30.3156 23.3589 29.6672 24.9204 28.3222 25.6074L26.5254 26.5254L25.6074 28.3223C24.9204 29.6673 23.3569 30.3146 21.9199 29.8496L20 29.2285L18.0781 29.8496C16.6411 30.3156 15.0796 29.6673 14.3926 28.3223L13.4746 26.5254L11.6777 25.6074C10.3327 24.9204 9.68537 23.3569 10.1504 21.9199L10.7715 20L10.1504 18.0801C9.68537 16.6431 10.3327 15.0796 11.6777 14.3926L13.4746 13.4746L14.3926 11.6777ZM19.1666 17.0833C19.1666 15.9325 18.2341 15 17.0833 15C15.9325 15 15 15.9325 15 17.0833C15 18.2342 15.9325 19.1667 17.0833 19.1667C18.2341 19.1667 19.1666 18.2342 19.1666 17.0833ZM16.3467 16.3468C16.5421 16.1514 16.807 16.0417 17.0833 16.0417C17.3596 16.0417 17.6245 16.1514 17.8199 16.3468C18.0152 16.5421 18.125 16.8071 18.125 17.0833C18.125 17.3596 18.0152 17.6246 17.8199 17.8199C17.6245 18.0153 17.3596 18.125 17.0833 18.125C16.807 18.125 16.5421 18.0153 16.3467 17.8199C16.1514 17.6246 16.0416 17.3596 16.0416 17.0833C16.0416 16.8071 16.1514 16.5421 16.3467 16.3468ZM22.845 16.1979C22.71 16.0967 22.5475 16.0586 22.3926 16.0807C22.2377 16.1028 22.0918 16.1846 21.9905 16.32L17.0312 22.9476C16.8296 23.2176 16.8858 23.5996 17.1549 23.8021C17.4249 24.0046 17.8069 23.9508 18.0094 23.68L22.9687 17.0524C23.1704 16.7824 23.1142 16.4004 22.845 16.1979ZM25 22.9167C25 21.7658 24.0675 20.8333 22.9166 20.8333C21.7658 20.8333 20.8333 21.7658 20.8333 22.9167C20.8333 24.0675 21.7658 25 22.9166 25C24.0675 25 25 24.0675 25 22.9167ZM22.1801 22.1801C22.3754 21.9847 22.6404 21.875 22.9166 21.875C23.1929 21.875 23.4579 21.9847 23.6532 22.1801C23.8486 22.3754 23.9583 22.6404 23.9583 22.9167C23.9583 23.1929 23.8486 23.4579 23.6532 23.6532C23.4579 23.8486 23.1929 23.9583 22.9166 23.9583C22.6404 23.9583 22.3754 23.8486 22.1801 23.6532C21.9847 23.4579 21.875 23.1929 21.875 22.9167C21.875 22.6404 21.9847 22.3754 22.1801 22.1801Z" fill="#EB5757"></path> </svg> 