<?xml version="1.0" encoding="UTF-8"?> <svg xmlns="http://www.w3.org/2000/svg" width="80" height="80" viewBox="0 0 80 80" fill="none"> <circle cx="40" cy="40" r="40" fill="#FF9800"></circle> <rect x="24" y="34" width="40" height="26" rx="4" fill="white" fill-opacity="0.4"></rect> <line x1="32" y1="47" x2="45.6522" y2="47" stroke="#FF9800" stroke-width="4" stroke-linecap="round"></line> <line x1="32" y1="53" x2="57" y2="53" stroke="#FF9800" stroke-width="4" stroke-linecap="round"></line> <rect x="16" y="20" width="40" height="26" rx="4" fill="#FFEBF0"></rect> <path d="M24 35V31C24 30.4477 24.4477 30 25 30H27.5858C27.851 30 28.1054 29.8946 28.2929 29.7071L30.2929 27.7071C30.9229 27.0771 32 27.5233 32 28.4142V37.5858C32 38.4767 30.9229 38.9229 30.2929 38.2929L28.2929 36.2929C28.1054 36.1054 27.851 36 27.5858 36H25C24.4477 36 24 35.5523 24 35Z" fill="#FF9800"></path> <path d="M43.2007 26C44.9322 27.804 45.9998 30.2747 45.9998 33C45.9998 35.7253 44.9322 38.196 43.2007 40" stroke="#FF9800" stroke-width="3" stroke-linecap="round" stroke-linejoin="round"></path> <path d="M37.8032 27.8457C38.6917 29.3511 39.2028 31.1148 39.2028 33.0005C39.2028 34.8861 38.6917 36.6499 37.8032 38.1552" stroke="#FF9800" stroke-width="3" stroke-linecap="round" stroke-linejoin="round"></path> </svg> 