<?xml version="1.0" encoding="UTF-8"?> <svg xmlns="http://www.w3.org/2000/svg" data-name="Layer 1" viewBox="0 0 141.73 141.73"> <defs> <clipPath id="a"> <path fill="none" d="M0 0h141.73v141.73H0z"></path> </clipPath> </defs> <path fill="#edf7fa" d="M0 0h141.73v141.73H0z"></path> <g clip-path="url(#a)"> <path d="M108.44 96.37c-.46-5.65 3.46-10 3.21-17.61-.24-7.36-4.8-12.15-6.72-19.3-1.84-6.8 1.31-15.13-6.41-25.72C90.67 23 69.16 17.21 56.14 28.15a17.85 17.85 0 0 0-20.07 9.7c-3.41 7.15-1.88 16.46-3.14 21.61-1.74 7.2-6.48 11.94-6.72 19.3-.25 7.59 3.67 12 3.21 17.61-.55 6.8-5.7 9.68-3.82 17a12.38 12.38 0 0 0 2.88 5.25 14.81 14.81 0 0 0 11 4.71h58.89a14.81 14.81 0 0 0 11-4.71 12.28 12.28 0 0 0 2.88-5.25c1.9-7.32-3.25-10.2-3.81-17z" fill="#f2dda6"></path> <path d="M135.56 148.65c-3.64-10-27.49-31.05-38.88-34.05l-5.94 9.73 3 11.58 27.08 17.7c-7.26 7.55-5 16.4-14.41 25.66.35 4.07 2.09 6.71 7.78 8.13.02 0 25.73-26.84 21.37-38.75zM41.29 114.6c-9.45 3.55-25.35 35.19-26.56 41.31-1.45 7.27-.75 34.86-.75 34.86 3.24 2.21 6.73 2.34 10.43.73.74-12.65 6.74-18.12 5.34-30.54 3.92-8.2 9.8-18.4 15.25-23.39l3.15-11.32z" fill="#f3b284"></path> <path d="M96.68 114.6s-10.53-5.07-20.36-5.91H61.69c-9.29 1.09-20.4 5.91-20.4 5.91s.6 12.89 3.09 29.44c3.16 21 4.13 19.49-.35 41.66h49.7c-4.48-22.17-3.3-20.7-.15-41.66 2.49-16.55 3.1-29.44 3.1-29.44z" fill="#f3b284"></path> <path fill="#f3b284" d="M76.78 112.78H61.09l.86-12.27h13.96l.87 12.27z"></path> <path d="M76.27 105.56l-.36-5H62l-.36 5c4.8 3.1 9.69 3.13 14.63 0zM49 67.29s-5.78-5.83-10.66-.74C32 73.11 40.84 86.28 52.72 84z" fill="#dd9c70"></path> <path d="M68.53 32.45c-19.29 0-27.19 11.4-25.66 37.22C42 87.34 46.73 95 58 100.62c2.76 1.39 5.52 4.85 10.54 4.86 5 0 7.77-3.47 10.54-4.86C90.32 95 95 87.34 94.18 69.67c1.53-25.82-6.36-37.22-25.65-37.22z" fill="#f3b284"></path> <path d="M47.76 65.57c0 .09-.1.18-.14.27a2.47 2.47 0 0 1-2.81.68 2.07 2.07 0 0 0 2.45 1.88 4.89 4.89 0 0 0 3.09 3.95l8.28-7.5c-1.63-2.38-8.14-3.72-10.87.72z" fill="#2b2a2c"></path> <path d="M61.64 71.49a9.32 9.32 0 0 1-6.92 2.39c-3.67-.18-5-2.11-5-2.11-2.9-3.74-.5-7.66 3.75-8.26 3.37-.51 7.47 1.3 8.17 7.98z" fill="#fff"></path> <path d="M59.07 68.14a3.8 3.8 0 0 0-4.5-2.82 2 2 0 0 1 .54 1 2 2 0 0 1-1.6 2.37 2.1 2.1 0 0 1-1.87-.55 3.44 3.44 0 0 0 0 1.5 3.8 3.8 0 0 0 4.51 2.82 3.67 3.67 0 0 0 2.92-4.32z" fill="#2c777b"></path> <path d="M89.28 65.57l.14.27a2.47 2.47 0 0 0 2.81.68 2.07 2.07 0 0 1-2.46 1.88 4.86 4.86 0 0 1-3.08 3.95l-8.28-7.5c1.68-2.38 8.13-3.72 10.87.72z" fill="#2b2a2c"></path> <path d="M75.4 71.49a9.3 9.3 0 0 0 6.91 2.39c3.68-.18 5-2.11 5-2.11 2.89-3.74.5-7.66-3.75-8.26-3.36-.51-7.46 1.3-8.16 7.98z" fill="#fff"></path> <path d="M85.44 68.14a3.8 3.8 0 0 0-4.5-2.82 2 2 0 0 1 .54 1 2 2 0 0 1-1.6 2.37 2.1 2.1 0 0 1-1.88-.56 3.44 3.44 0 0 0 0 1.5 3.8 3.8 0 0 0 4.51 2.82 3.67 3.67 0 0 0 2.93-4.31z" fill="#2c777b"></path> <path d="M50.07 59.11a6 6 0 0 1 6.45-1.71 2.06 2.06 0 0 1 1.68 2.1 15.48 15.48 0 0 0-8.13-.39zM87.39 59.16a6.29 6.29 0 0 0-6.64-1.69A2.09 2.09 0 0 0 79 59.59a16.42 16.42 0 0 1 8.39-.43z" fill="#f2dda6"></path> <path d="M58.7 88.41s9 8.37 19.3.64c0 0-8.19 4.89-19.3-.64z" fill="#c47d5e"></path> <path d="M65.43 93.9a10.09 10.09 0 0 0 6.6.15 4 4 0 0 1-6.6-.15z" fill="#dd9c70"></path> <path d="M68.34 72.79s-1 3.84.4 5.24c1.16 1.16 2.12 1.34 2.73 1.94s-.26 2.76-3.55 5.17c4.24-1.28 6.67-5.14 5.64-6.44-.57-.72-2.5-1-3.6-1.64-1.39-.83-1.62-4.27-1.62-4.27z" fill="#c47d5e"></path> <path d="M83.57 44.46C74 55.93 58.25 57.23 54.14 54.85c4.49-1.83.92-5.33 5.44-10.52C39.39 46.89 40.5 63.85 40.5 63.85c-7.53-22.47 2.8-35 29-35s33.93 17.94 27.06 35c0 0 0 25.8-.32 14.61-.75-26.14-10.38-21.3-12.67-34z" fill="#f2dda6"></path> <circle cx="47.94" cy="78.28" r=".85" fill="#fbc9a7"></circle> <circle cx="53.95" cy="79.31" r=".85" fill="#fbc9a7"></circle> <circle cx="50.41" cy="82.22" r=".85" fill="#fbc9a7"></circle> <circle cx="89.89" cy="78.28" r=".85" fill="#fbc9a7"></circle> <circle cx="83.88" cy="79.31" r=".85" fill="#fbc9a7"></circle> <circle cx="87.42" cy="82.22" r=".85" fill="#fbc9a7"></circle> <path d="M87.34 110.81l-5.88-1.61s-1.22 9.46-12.54 9.46-12.55-9.37-12.55-9.37l-5.93 1.62s-11.58 15.67-8.82 31.66h54.59c2.79-15.99-8.87-31.76-8.87-31.76z" fill="#413154"></path> <path d="M95.94 169.87l2.51-56-11.11-3-4.47 27.5H55l-4.53-27.4-10.72 2.93 2.37 56c-17.53 39.29-15.92 64.69-15.92 64.69s19.55 9.76 41.57 4.89l1.18-20.63.94 20.63c22 4.87 41.81-4.89 41.81-4.89s1.77-25.43-15.76-64.72z" fill="#5cc7d2"></path> <path d="M98.45 113.84s10.8 2 22.39 12.33c0 0-4.88 19.17-24.17 27.49zM39.72 113.84s-11.11 2-22.7 12.33c0 0 5.09 19.17 24.38 27.49z" fill="#413154"></path> </g> </svg> 