<?xml version="1.0" encoding="UTF-8"?> <svg xmlns="http://www.w3.org/2000/svg" width="80" height="80" viewBox="0 0 80 80" fill="none"> <circle cx="40" cy="40" r="40" fill="#8354B8"></circle> <path d="M31 31C31 28.2386 33.2386 26 36 26H54C56.7614 26 59 28.2386 59 31V59C59 61.7614 56.7614 64 54 64H36C33.2386 64 31 61.7614 31 59V31Z" fill="#B59BD5"></path> <path d="M35 31H55V58H35V31Z" fill="#8354B8"></path> <circle cx="45" cy="61" r="2" fill="#8354B8"></circle> <path d="M21 20H49C50.1046 20 51 20.8954 51 22V52C51 53.1046 50.1046 54 49 54H21V20Z" fill="#EDE7F5"></path> <line x1="31" y1="28" x2="45" y2="28" stroke="#B59BD5" stroke-width="4" stroke-linecap="round"></line> <line x1="31" y1="34" x2="38" y2="34" stroke="#B59BD5" stroke-width="4" stroke-linecap="round"></line> <path d="M21 20H25V54H21V20Z" fill="#B59BD5"></path> </svg> 