<?xml version="1.0" encoding="UTF-8"?> <svg xmlns="http://www.w3.org/2000/svg" width="2240" height="960" viewBox="0 0 2240 960" fill="none"> <rect width="2240" height="960" fill="#396D50"></rect> <path fill-rule="evenodd" clip-rule="evenodd" d="M1944.14 529.654C1941.63 538.908 1930.97 544.559 1930.97 544.559C1930.97 544.559 1924.59 568.99 1907.47 579.345C1892.13 588.628 1881.71 589.514 1870.8 587.806C1869.67 587.629 1868.57 587.315 1867.49 586.925C1868.77 575.431 1870.12 562.96 1871.38 550.963C1871.5 549.788 1871.62 548.63 1871.74 547.466C1872.71 547.79 1873.68 548.16 1874.68 548.63C1874.68 548.63 1882.12 552.969 1895.77 553.055C1910.5 553.147 1913.82 544.57 1915.27 541.244C1913.53 536.458 1911.07 527.793 1912.79 521.061C1915.61 521.648 1922.98 528.173 1922.98 528.173C1922.98 528.173 1925.44 520.818 1931.09 518.548C1933.63 522.773 1932.27 531.337 1932.27 531.337C1932.27 531.337 1938.49 528.763 1944.14 529.654Z" fill="#6F568E"></path> <path fill-rule="evenodd" clip-rule="evenodd" d="M1920.19 535.377C1920.13 538.086 1922.28 540.334 1925 540.399C1927.72 540.463 1929.98 538.319 1930.04 535.609C1930.11 532.9 1927.95 530.652 1925.23 530.587C1922.51 530.523 1920.25 532.667 1920.19 535.377Z" fill="#FFC500"></path> <path fill-rule="evenodd" clip-rule="evenodd" d="M1737.45 653.304C1737.45 653.304 1739.31 661.364 1745.78 671.105C1748.28 674.885 1751.49 678.905 1755.55 682.826C1767.18 694.046 1775.41 698.647 1775.41 698.647C1775.41 698.647 1783.2 674.345 1794.27 669.625C1803.76 665.585 1816.78 668.425 1816.78 668.425C1816.78 668.425 1835 643.163 1803.46 637.723C1803.46 637.723 1786.6 632.142 1772.91 641.443C1765.6 646.403 1755.31 659.084 1754.05 660.644C1753.97 660.744 1753.93 660.804 1753.93 660.804H1753.91L1737.45 653.304Z" fill="#6F578E"></path> <path fill-rule="evenodd" clip-rule="evenodd" d="M1737.45 653.305C1737.45 653.305 1739.31 661.365 1745.78 671.106L1753.91 660.805L1737.45 653.305Z" fill="#0D0F12"></path> <path d="M1911.24 634.409L1898.09 629.112L1898.88 643.819L1889.52 631.64L1881.11 648.067L1880.36 631.159L1866.76 635.588L1866.96 643.662L1875.28 648.976L1883.46 650.453L1892.14 648.171L1904.74 642.735L1911.24 634.409Z" fill="#0D1013"></path> <path d="M1820.69 295.074C1823.4 277.157 1833.07 266.223 1842.44 270.103C1845.89 271.531 1844.43 281.786 1840.98 280.359C1834.55 277.695 1827.81 285.745 1825.97 297.901C1824.98 304.454 1819.69 301.665 1820.69 295.074Z" fill="#FFF500" fill-opacity="0.9"></path> <path fill-rule="evenodd" clip-rule="evenodd" d="M1739.55 513.471C1736.62 513.237 1734.04 515.419 1733.81 518.344C1733.58 521.27 1735.77 523.832 1738.71 524.066C1741.64 524.301 1744.22 522.119 1744.45 519.194C1744.68 516.268 1742.49 513.706 1739.55 513.471Z" fill="#FFC500"></path> <path fill-rule="evenodd" clip-rule="evenodd" d="M1731.84 512.306C1731.84 512.306 1731.33 502.928 1734.54 498.66C1740.37 501.737 1742.2 509.934 1742.2 509.934C1742.2 509.934 1750.86 503.728 1753.97 503.41C1755.06 510.854 1751.45 519.915 1749.04 524.875C1750.23 528.62 1752.85 538.23 1768.73 539.775C1783.44 541.206 1791.94 537.362 1791.94 537.362C1793.07 536.967 1794.16 536.678 1795.23 536.436C1795.23 537.703 1795.23 538.965 1795.24 540.243C1795.25 553.308 1795.31 566.893 1795.4 579.417C1794.2 579.717 1792.98 579.933 1791.74 579.997C1779.8 580.62 1768.67 578.502 1753.18 566.79C1735.9 553.724 1731.76 526.695 1731.76 526.695C1731.76 526.695 1720.9 519.416 1719.24 509.168C1725.42 508.839 1731.84 512.306 1731.84 512.306ZM1738.93 524.068C1741.87 524.303 1744.44 522.121 1744.67 519.195C1744.91 516.269 1742.72 513.708 1739.78 513.473C1736.84 513.238 1734.27 515.42 1734.03 518.346C1733.8 521.272 1735.99 523.834 1738.93 524.068Z" fill="#6F568E"></path> <path fill-rule="evenodd" clip-rule="evenodd" d="M1878.51 543.645L1899.25 532.566L1887.85 515.091L1909.15 502.43L1892.86 480.388L1920.37 467.102L1897.55 444.836L1878.51 543.645Z" fill="#0D1013"></path> <path d="M1700.42 392.626C1701.23 396.998 1702.04 401.37 1702.85 405.742C1703.49 409.244 1693.32 409.22 1692.68 405.742C1691.87 401.37 1691.06 396.998 1690.25 392.626C1689.6 389.123 1699.77 389.147 1700.42 392.626Z" fill="#ECF9FF"></path> <path d="M1979.33 368.502C1984.85 361.312 1991.82 359.547 1998.12 363.733C2001.44 365.934 2000.01 376.145 1996.67 373.923C1991.63 370.579 1986.5 371.886 1982.09 377.626C1979.16 381.439 1976.41 372.288 1979.33 368.502Z" fill="#ECF9FF"></path> <path d="M1817.79 223.591C1823.32 216.401 1830.28 214.636 1836.59 218.822C1839.9 221.023 1838.48 231.234 1835.13 229.012C1830.09 225.668 1824.97 226.975 1820.55 232.715C1817.62 236.528 1814.88 227.377 1817.79 223.591Z" fill="#ECF9FF"></path> <path d="M1680.3 534.899C1686.68 532.625 1691.61 528.159 1695.08 521.984C1696.93 518.69 1702.97 525.046 1701.13 528.329C1697.11 535.469 1691.28 540.253 1683.93 542.871C1680.55 544.075 1676.94 536.097 1680.3 534.899Z" fill="#ECF9FF"></path> <path d="M1767.16 207.636C1772.08 211.509 1774.79 217.537 1774.61 223.771C1774.51 227.286 1769.04 227.301 1769.13 223.771C1769.27 218.834 1767.15 214.549 1763.29 211.506C1760.52 209.328 1764.42 205.478 1767.16 207.636Z" fill="#ECF9FF"></path> <path d="M1972.63 544.266C1981.86 541.398 1988.53 534.769 1992.43 525.138C1993.92 521.476 2000.89 528.648 1999.42 532.289C1995.09 542.973 1987.47 549.953 1977.26 553.125C1973.77 554.209 1969.15 545.347 1972.63 544.266Z" fill="#ECF9FF"></path> <path d="M2019.32 443.527C2027.38 438.185 2031.92 429.953 2032.97 419.615C2033.37 415.684 2042.07 420.612 2041.68 424.521C2040.52 435.989 2035.16 444.826 2026.25 450.733C2023.2 452.753 2016.28 445.54 2019.32 443.527Z" fill="#1EA17D"></path> <path d="M1714.21 585.074C1723.7 590.968 1727.05 598.971 1722.45 606.415C1720.39 609.744 1710.52 608.318 1712.59 604.96C1716.01 599.435 1714.15 593.397 1706.98 588.944C1702.7 586.289 1709.9 582.4 1714.21 585.074Z" fill="#1EA17D"></path> <path d="M1700.69 702.354C1706.53 705.352 1713.11 706.164 1719.51 704.699C1722.94 703.913 1724.41 709.19 1720.97 709.978C1713.09 711.781 1705.11 710.769 1697.92 707.08C1694.79 705.469 1697.56 700.745 1700.69 702.354Z" fill="#1EA17D"></path> <path d="M1901.7 249.856C1912.58 246.995 1924.78 252.453 1932.18 263.024C1935.52 267.799 1928.92 271.843 1925.59 267.088C1920.49 259.797 1911.91 256.426 1904.54 258.363C1899.67 259.644 1896.82 251.141 1901.7 249.856Z" fill="#1EA17D"></path> <path d="M1806.48 315.413C1816.99 314.514 1825.24 325.065 1823.6 335.492C1822.88 340.056 1816.21 338.119 1816.92 333.577C1817.89 327.418 1812.08 322.137 1806.48 322.616C1802.04 322.996 1802.06 315.791 1806.48 315.413Z" fill="#1EA17D"></path> <path d="M1710.39 260.411C1715.9 268.988 1723.84 273.232 1731.63 271.247C1735.08 270.367 1736.56 278.471 1733.09 279.357C1723.34 281.843 1713.49 277.217 1706.51 266.358C1704.03 262.5 1707.91 256.548 1710.39 260.411Z" fill="#1EA17D"></path> <path d="M1995.83 321.004C2002.82 316.55 2004.44 310.45 2000.85 304.956C1998.69 301.639 2008.19 300.21 2010.34 303.501C2015.15 310.878 2011.98 319.015 2002.79 324.874C1998.61 327.533 1991.68 323.648 1995.83 321.004Z" fill="#1EA17D"></path> <path d="M1924.3 315.32C1927.34 323.48 1940.47 323.373 1952.18 315.568C1956.16 312.915 1957.39 317.406 1953.41 320.058C1938.21 330.196 1921.9 329.574 1918.03 319.2C1917.01 316.46 1923.28 312.58 1924.3 315.32Z" fill="#FF5767"></path> <path d="M1978.48 476.999C1990.08 474.235 2001.57 481.441 2008.41 495.895C2010.47 500.238 2005.72 504.382 2003.68 500.079C1998.4 488.934 1988.91 482.856 1979.94 484.993C1976.49 485.815 1975 477.828 1978.48 476.999Z" fill="#FF5767"></path> <path d="M1945.61 450.384C1946.38 446.625 1950.38 443.286 1957.24 441.462C1963.53 439.79 1969.15 444.514 1962.85 446.189C1959.65 447.04 1957.09 448.543 1956.72 450.384C1956.41 451.855 1954.38 453.121 1951.16 453.121C1948.39 453.121 1945.3 451.864 1945.61 450.384Z" fill="#FF5767"></path> <path d="M1974.81 248.911C1982.51 260.507 1980.04 271.634 1971.1 271.4C1966.91 271.29 1963.68 262.928 1967.86 263.038C1972.93 263.171 1972.98 256.119 1969.06 250.204C1965.58 244.97 1971.35 243.697 1974.81 248.911Z" fill="#FF5767"></path> <path d="M1790.07 362.205C1792.88 359.486 1793.69 356.464 1792.27 353.266C1790.76 349.888 1798.52 348.444 1800.03 351.811C1802.02 356.28 1800.98 361.136 1797.02 364.968C1794.06 367.828 1787.08 365.096 1790.07 362.205Z" fill="#ECF9FF"></path> <path d="M2007.7 562.369C2017.8 565.323 2023.7 571.713 2024.98 580.087C2025.52 583.642 2016.85 585.888 2016.31 582.349C2015.26 575.442 2009.83 570.516 2001.6 568.109C1997.31 566.856 2003.45 561.126 2007.7 562.369Z" fill="#FF5767"></path> <path d="M1715.34 338.858C1725.7 337.021 1733.83 340.129 1738.69 347.064C1740.76 350.009 1733.99 355.868 1731.94 352.937C1727.92 347.216 1720.87 345.213 1712.42 346.709C1708.03 347.488 1710.98 339.63 1715.34 338.858Z" fill="#FF5767"></path> <path d="M1663.2 639.43C1671.5 645.697 1681.13 644.555 1688.97 636.886C1692.05 633.874 1694.82 642.147 1691.74 645.159C1682.03 654.649 1670.6 655.385 1660.44 647.703C1657.21 645.264 1660 637.006 1663.2 639.43Z" fill="#FF5767"></path> <path d="M1659.38 466.154C1666.91 458.802 1676.07 459.096 1683.38 467.207C1686.37 470.524 1683.62 478.989 1680.61 475.653C1674.97 469.391 1668 468.885 1662.15 474.599C1659.06 477.622 1656.29 469.179 1659.38 466.154Z" fill="#FF5767"></path> <path d="M1872.82 339.901C1862.42 338.258 1857.19 330.744 1859.34 320.044C1860.22 315.669 1868.66 312.817 1867.77 317.218C1866.11 325.478 1869.87 331.365 1877.95 332.642C1882.22 333.318 1877.1 340.577 1872.82 339.901Z" fill="#FF5767"></path> <path d="M1648.79 558.557C1651.12 566.276 1658.63 572.175 1667.55 572.807C1672.59 573.164 1672.64 580.317 1667.55 579.957C1655.11 579.077 1644.45 571.396 1641.16 560.458C1639.82 556.013 1647.45 554.116 1648.79 558.557Z" fill="#FFF500" fill-opacity="0.9"></path> <path d="M1663.98 273.597C1666.06 270.271 1675.97 271.697 1673.87 275.052C1668.72 283.311 1669.07 292.28 1675.57 300.312C1678.16 303.513 1669.33 306.303 1666.72 303.075C1659.12 293.691 1657.91 283.337 1663.98 273.597Z" fill="#FFF500" fill-opacity="0.9"></path> <path d="M1969.53 658.018C1962.13 661.453 1956.3 667.363 1952.75 674.953C1950.49 679.772 1943.15 676.303 1945.42 671.453C1949.91 661.862 1957.24 654.522 1966.57 650.188C1971.28 647.998 1974.21 655.841 1969.53 658.018Z" fill="#FFF500" fill-opacity="0.9"></path> <path d="M1746.63 620.791C1753.86 620.167 1760.36 616.67 1765.1 611.228C1767.42 608.566 1771.28 612.451 1768.97 615.099C1763.25 621.669 1755.28 625.518 1746.63 626.264C1743.12 626.568 1743.14 621.092 1746.63 620.791Z" fill="#FFF500" fill-opacity="0.9"></path> <path d="M1645.26 397.469C1650.19 401.607 1654.75 406.608 1659.03 412.352C1661.76 416.013 1657.87 422.332 1655.16 418.7C1651.24 413.449 1647 409 1642.5 405.22C1639.36 402.584 1642.13 394.836 1645.26 397.469Z" fill="#FFF500" fill-opacity="0.9"></path> <path d="M1829.03 753C1785.32 753 1749.89 749.466 1749.89 745.106C1749.89 740.746 1785.32 737.212 1829.03 737.212C1872.74 737.212 1908.17 740.746 1908.17 745.106C1908.17 749.466 1872.74 753 1829.03 753Z" fill="#2B553E"></path> <path d="M1714.44 684.686C1711.15 684.686 1708.48 682.044 1708.48 678.785C1708.48 675.527 1711.15 672.885 1714.44 672.885C1717.74 672.885 1720.41 675.527 1720.41 678.785C1720.41 682.044 1717.74 684.686 1714.44 684.686Z" fill="#ECF9FF"></path> <path d="M1875.03 225.108C1871.74 225.108 1869.07 222.466 1869.07 219.207C1869.07 215.948 1871.74 213.307 1875.03 213.307C1878.33 213.307 1881 215.948 1881 219.207C1881 222.466 1878.33 225.108 1875.03 225.108Z" fill="#FFF500" fill-opacity="0.9"></path> <path d="M1645.16 516.014C1643.13 511.768 1643.9 507.18 1646.88 505.766C1649.85 504.352 1653.9 506.648 1655.92 510.894C1657.95 515.141 1657.18 519.729 1654.2 521.143C1651.23 522.557 1647.18 520.261 1645.16 516.014Z" fill="#1EA17D"></path> <path d="M1911.1 356.297C1909.07 352.05 1909.84 347.462 1912.82 346.048C1915.79 344.634 1919.84 346.93 1921.86 351.177C1923.89 355.423 1923.12 360.011 1920.14 361.425C1917.17 362.839 1913.12 360.543 1911.1 356.297Z" fill="#1EA17D"></path> <path d="M1762.72 332.119C1760.3 329.223 1760.93 324.731 1764.11 322.087C1767.3 319.443 1771.83 319.648 1774.24 322.544C1776.65 325.44 1776.03 329.931 1772.84 332.576C1769.66 335.22 1765.13 335.015 1762.72 332.119Z" fill="#FFF500" fill-opacity="0.9"></path> <path d="M1989.61 419.707C1985.59 417.26 1983.72 412.999 1985.43 410.19C1987.14 407.381 1991.79 407.088 1995.81 409.535C1999.83 411.983 2001.7 416.244 1999.99 419.053C1998.27 421.862 1993.63 422.155 1989.61 419.707Z" fill="#FFF500" fill-opacity="0.9"></path> <path d="M1976.84 618.649C1972.24 617.667 1969.06 614.262 1969.75 611.045C1970.44 607.828 1974.73 606.018 1979.33 607C1983.93 607.983 1987.11 611.388 1986.42 614.605C1985.73 617.822 1981.44 619.632 1976.84 618.649Z" fill="#FFF500" fill-opacity="0.9"></path> <path d="M1987.8 683.775C1983.2 682.792 1980.02 679.388 1980.71 676.171C1981.4 672.954 1985.69 671.144 1990.29 672.126C1994.89 673.109 1998.07 676.514 1997.38 679.731C1996.69 682.948 1992.4 684.758 1987.8 683.775Z" fill="#1EA17D"></path> <path fill-rule="evenodd" clip-rule="evenodd" d="M1779.34 510.875C1779.36 511.076 1779.36 511.255 1779.38 511.436C1781.7 541.297 1787.77 595.801 1789.21 621.342C1789.31 622.923 1789.37 624.363 1789.43 625.703C1790.51 653.464 1801.62 684.026 1845.29 689.527C1864.19 691.907 1865.09 691.967 1864.61 691.587C1864.41 691.427 1863.95 691.187 1864.55 691.027H1864.57C1865.21 690.867 1867.01 690.787 1871.36 690.947C1871.46 690.947 1871.6 690.867 1871.74 690.747C1873.96 690.767 1876.28 690.667 1878.91 690.327C1886.35 689.367 1893.22 686.847 1899.23 683.166C1900.45 682.426 1901.63 681.646 1902.77 680.806C1903.19 680.506 1903.59 680.206 1903.99 679.906C1917.93 669.025 1925.92 651.284 1923.47 632.503C1923.47 632.463 1923.45 632.423 1923.45 632.383C1922.95 628.523 1921.97 624.843 1920.69 621.342C1920.67 621.262 1920.63 621.202 1920.61 621.122C1916.35 629.183 1910.06 636.763 1902.27 641.844C1901.93 642.064 1901.59 642.284 1901.25 642.484C1900.89 642.704 1900.51 642.924 1900.15 643.144C1894.6 646.344 1888.34 648.264 1881.59 648.264C1862.27 648.264 1867.13 631.003 1868.33 616.822C1872.4 569.419 1903.31 443.991 1903.27 444.251C1903.27 444.251 1845.23 405.969 1808.11 428.49C1807.11 429.09 1781.38 459.752 1778.62 491.474C1778.6 491.774 1778.64 501.915 1779.34 510.875Z" fill="#EF5968"></path> <path d="M1864.56 690.734C1865.61 690.942 1864.47 690.836 1864.56 690.734V690.734Z" fill="#FCC836"></path> <path d="M1779.38 511.436C1781.14 541.538 1786.16 596.402 1789.21 621.343C1789.31 622.923 1789.37 624.363 1789.43 625.703C1790.51 653.465 1801.62 684.027 1845.29 689.528C1864.19 691.908 1867.01 690.788 1871.36 690.948C1871.46 690.948 1876.28 690.668 1878.91 690.328C1886.35 689.367 1893.22 686.847 1899.23 683.167C1900.45 682.427 1903.59 680.207 1903.99 679.907C1917.93 669.026 1925.92 651.285 1923.47 632.504C1923.47 632.464 1923.45 632.424 1923.45 632.384C1920.39 642.024 1907.92 667.126 1884.49 669.906C1847.27 674.327 1839.1 650.985 1838.38 641.104C1835.84 606.242 1842.75 531.217 1850.83 496.595C1836.5 499.195 1820.06 525.277 1806.17 520.897C1798.28 518.397 1796.51 489.635 1778.9 491.455C1778.8 491.455 1778.72 491.455 1778.62 491.475C1778.6 491.775 1778.61 504.815 1779.38 511.436Z" fill="#FFC500"></path> <path fill-rule="evenodd" clip-rule="evenodd" d="M1869.39 655.856C1869.39 655.856 1879.57 661.734 1882.66 676.952C1885.75 692.169 1878.84 705.32 1878.84 705.32C1878.84 705.32 1853.28 721.982 1846.9 721.024C1840.41 720.049 1839.21 716.278 1841.06 711.804C1842.92 707.33 1853.67 689.948 1849.11 679.771C1844.76 670.063 1837.43 669.476 1836.44 666.778C1835.25 663.534 1844.05 642.968 1869.39 655.856Z" fill="#6F568E"></path> <path fill-rule="evenodd" clip-rule="evenodd" d="M1879.73 683.638C1879.73 683.638 1884.42 678.81 1886.53 677.008C1886.9 678.371 1887.8 680.765 1888.24 681.888C1890.17 680.737 1893.46 678.806 1895.14 677.95C1895.18 679.547 1894.87 684.142 1894.63 685.319L1899.98 685.624C1899.34 687.397 1894.49 691.766 1894.49 691.766L1879.73 683.638Z" fill="#0D1013"></path> <path d="M1841.06 718.231C1837.63 712.664 1846.84 700.783 1861.64 691.695C1876.43 682.606 1891.2 679.752 1894.63 685.319C1898.05 690.886 1888.84 702.767 1874.05 711.856C1859.25 720.944 1844.48 723.799 1841.06 718.231Z" fill="#6F568E"></path> <path d="M1844.93 716.1C1842.53 712.202 1850.79 702.771 1863.38 695.035C1875.97 687.299 1888.13 684.188 1890.53 688.087C1892.93 691.985 1884.67 701.417 1872.08 709.152C1859.48 716.888 1847.33 719.999 1844.93 716.1Z" fill="#FFC500"></path> <path fill-rule="evenodd" clip-rule="evenodd" d="M1876.63 459.592C1876.63 459.592 1851.43 543.581 1809 544.657C1766.57 545.734 1796.2 425.607 1796.2 425.607L1876.63 459.592Z" fill="#EF5968"></path> <path fill-rule="evenodd" clip-rule="evenodd" d="M1793.09 516.936C1795.53 528.957 1800.82 537.277 1810.79 537.117C1822.06 536.937 1831.79 529.277 1839.8 518.936C1856.88 496.875 1866.19 462.613 1866.19 462.613L1798.92 431.851C1798.92 431.851 1786.84 486.374 1793.09 516.936Z" fill="#4A0006"></path> <path d="M1793.09 516.936C1795.53 528.956 1800.82 537.277 1810.79 537.117C1822.06 536.937 1831.79 529.276 1839.8 518.936C1839.8 518.936 1821 506.595 1793.09 516.936Z" fill="#8E010D"></path> <path fill-rule="evenodd" clip-rule="evenodd" d="M1855.37 475.469L1849.87 495.252L1832.71 487.524L1824.77 502.387L1808.8 492.769L1798.12 506.043L1784.27 493.22L1783.58 489.418L1853.28 473.249L1855.37 475.469Z" fill="white"></path> <path fill-rule="evenodd" clip-rule="evenodd" d="M1745.57 417.088C1745.74 416.708 1745.94 416.362 1746.12 415.995C1744.59 414.856 1743.16 413.479 1741.9 411.87C1736.53 404.993 1736.42 396.683 1741.65 393.31C1745.58 390.77 1751.43 391.757 1756.37 395.335C1755.58 387.718 1759.06 381.108 1765.02 379.782C1771.89 378.254 1779.46 384.331 1781.92 393.357C1782.46 395.355 1782.69 397.325 1782.68 399.206C1804.53 398.909 1831.91 405.999 1855.33 415.196C1871.5 421.545 1902.29 434.121 1902.29 434.121C1902.06 434.351 1882.68 444.257 1866.55 462.38C1837.96 494.503 1778.52 491.532 1760.05 489.328C1746.48 487.709 1731.03 479.233 1731.03 479.233C1731.03 479.238 1733.29 445.397 1745.57 417.088Z" fill="#EF5968"></path> <path fill-rule="evenodd" clip-rule="evenodd" d="M1764.95 387.995C1762.53 389.093 1761.84 393.143 1763.4 397.042C1764.97 400.941 1768.2 403.212 1770.62 402.114C1773.04 401.017 1773.73 396.966 1772.17 393.067C1770.6 389.168 1767.37 386.897 1764.95 387.995Z" fill="#0D1013"></path> <path fill-rule="evenodd" clip-rule="evenodd" d="M1745.4 399.185C1743.53 400.705 1743.96 404.115 1746.37 406.803C1748.78 409.49 1752.25 410.438 1754.12 408.919C1755.99 407.399 1755.56 403.989 1753.15 401.301C1750.74 398.614 1747.27 397.666 1745.4 399.185Z" fill="#0D1013"></path> <path fill-rule="evenodd" clip-rule="evenodd" d="M1899.62 397.21C1886.59 394.34 1873.7 402.551 1870.83 415.55C1867.97 428.548 1876.21 441.412 1889.24 444.281C1902.27 447.151 1915.16 438.939 1918.03 425.941C1920.89 412.943 1912.65 400.079 1899.62 397.21Z" fill="#72518A"></path> <path fill-rule="evenodd" clip-rule="evenodd" d="M1910.18 383.442C1906.19 383.034 1903.17 384.107 1902.5 386.658C1901.83 389.21 1904.59 391.808 1906.97 392.568C1909.36 393.329 1915.17 398.755 1916.67 400.063C1918.16 401.372 1921.28 401.254 1922.7 399.904C1924.13 398.554 1923.86 395.784 1922.98 393.869C1920.8 389.167 1916.14 384.05 1910.18 383.442Z" fill="#0D1013"></path> <path fill-rule="evenodd" clip-rule="evenodd" d="M1855.71 371.349C1859.68 372.117 1862.26 374.031 1862.16 376.691C1862.05 379.352 1858.64 381.06 1856.12 381.102C1853.61 381.143 1846.43 384.696 1844.6 385.525C1842.78 386.354 1839.82 385.335 1838.85 383.616C1837.87 381.897 1838.94 379.298 1840.36 377.705C1843.83 373.794 1849.81 370.204 1855.71 371.349Z" fill="#0D1013"></path> <path fill-rule="evenodd" clip-rule="evenodd" d="M1864.7 387.305C1851.67 384.436 1838.78 392.649 1835.91 405.651C1833.04 418.653 1841.28 431.519 1854.31 434.389C1867.34 437.258 1880.23 429.044 1883.1 416.043C1885.97 403.041 1877.73 390.175 1864.7 387.305Z" fill="#72518A"></path> <path fill-rule="evenodd" clip-rule="evenodd" d="M1897.78 405.614C1889.4 403.769 1881.11 409.049 1879.27 417.407C1877.42 425.765 1882.72 434.036 1891.1 435.881C1899.47 437.725 1907.76 432.445 1909.6 424.087C1911.45 415.729 1906.15 407.458 1897.78 405.614Z" fill="white"></path> <path fill-rule="evenodd" clip-rule="evenodd" d="M1862.84 395.718C1854.46 393.874 1846.18 399.154 1844.33 407.512C1842.49 415.87 1847.78 424.141 1856.16 425.985C1864.54 427.83 1872.82 422.549 1874.67 414.191C1876.51 405.833 1871.22 397.563 1862.84 395.718Z" fill="white"></path> <path d="M1867.12 415.532C1868.04 415.532 1868.87 414.897 1869.08 413.961C1869.6 411.666 1868.91 409.189 1867.18 407.165C1865.56 405.278 1863.19 403.905 1860.5 403.3C1857.82 402.695 1855.09 402.921 1852.82 403.935C1850.39 405.023 1848.7 406.963 1848.18 409.258C1847.93 410.343 1848.62 411.42 1849.7 411.664C1850.79 411.909 1851.87 411.227 1852.11 410.143C1852.43 408.711 1853.73 407.942 1854.47 407.61C1855.92 406.958 1857.8 406.819 1859.62 407.228C1863.15 408.024 1865.69 410.702 1865.15 413.076C1864.91 414.161 1865.59 415.238 1866.67 415.483C1866.82 415.516 1866.97 415.532 1867.12 415.532Z" fill="#1C1B19"></path> <path d="M1902.83 425.173C1903.75 425.173 1904.58 424.537 1904.8 423.602C1905.31 421.306 1904.62 418.83 1902.89 416.806C1901.27 414.918 1898.91 413.546 1896.22 412.941C1893.53 412.336 1890.8 412.562 1888.53 413.576C1886.1 414.663 1884.41 416.603 1883.89 418.899C1883.65 419.983 1884.33 421.061 1885.41 421.305C1886.5 421.549 1887.58 420.868 1887.82 419.783C1888.15 418.352 1889.44 417.582 1890.18 417.251C1891.63 416.599 1893.51 416.46 1895.33 416.869C1898.87 417.664 1901.4 420.342 1900.86 422.717C1900.62 423.802 1901.3 424.879 1902.39 425.123C1902.54 425.157 1902.68 425.173 1902.83 425.173Z" fill="#1C1B19"></path> <path d="M1778.67 490.539C1778.74 490.542 1779.31 490.542 1779.41 490.542C1830.6 490.542 1851.42 475.831 1859.27 467.051C1861.97 464.035 1864.76 458.991 1864.79 458.94C1865.32 457.966 1866.55 457.61 1867.52 458.145C1868.5 458.681 1868.85 459.905 1868.32 460.879C1868.2 461.102 1865.28 466.372 1862.28 469.734C1858.34 474.139 1850.88 480.462 1837.74 485.57C1822.37 491.542 1802.74 494.569 1779.41 494.569C1779.31 494.569 1778.68 494.582 1778.61 494.569C1778.55 494.089 1778.49 491.849 1778.67 490.539Z" fill="white"></path> <path fill-rule="evenodd" clip-rule="evenodd" d="M433 321.755L462.004 339.489L480.303 312.683L453.349 307.544L433 321.755Z" fill="#0D1013"></path> <path fill-rule="evenodd" clip-rule="evenodd" d="M433.92 293.864L459.235 311.043L480.09 280.519L468.325 274.27L433.92 293.864Z" fill="#0D1013"></path> <path fill-rule="evenodd" clip-rule="evenodd" d="M478.496 368.15L438.907 351.43L462.246 328.822L486.355 343.757L478.496 368.15Z" fill="#0D1013"></path> <path fill-rule="evenodd" clip-rule="evenodd" d="M473.759 269.079L612.294 281.746C621.335 282.519 627.869 289.516 626.905 297.285L619.937 352.778C619.069 359.703 612.463 365.059 604.362 365.373L481.739 370.199C473.036 370.561 465.538 365.011 464.621 357.556L455.725 284.618C454.568 275.69 463.344 268.138 473.759 269.079Z" fill="#FF5767"></path> <path fill-rule="evenodd" clip-rule="evenodd" d="M596.477 391L571.307 364.411L597.852 339.222L596.477 391Z" fill="#FF5767"></path> <path fill-rule="evenodd" clip-rule="evenodd" d="M533.567 294.674C533.406 290.599 536.574 287.166 540.646 287.002C544.383 286.855 547.643 289.528 548.226 293.227L553.41 345.463C553.571 349.538 550.403 352.972 546.331 353.136C542.594 353.283 539.335 350.61 538.751 346.911L536.774 327.03L513.412 329.443L515.389 349.275C515.55 353.351 512.382 356.784 508.31 356.948C504.573 357.095 501.313 354.422 500.73 350.723L495.57 298.438C495.409 294.363 498.577 290.93 502.649 290.766C506.386 290.619 509.646 293.292 510.229 296.991L512.061 315.497L535.424 313.084L533.567 294.674Z" fill="white"></path> <path fill-rule="evenodd" clip-rule="evenodd" d="M584.705 295.315C584.575 299.79 580.845 303.313 576.373 303.185C571.903 303.055 568.38 299.322 568.511 294.847C568.515 294.642 568.53 294.434 568.552 294.229C568.814 289.932 572.508 286.665 576.802 286.928C577.009 286.94 577.217 286.962 577.424 286.991C581.667 287.198 584.937 290.81 584.729 295.057C584.722 295.165 584.715 295.276 584.705 295.387V295.315ZM568.383 314.617C568.933 310.831 572.443 308.211 576.226 308.759C579.596 309.251 582.111 312.124 582.15 315.534L580.173 345.404C579.727 349.202 576.288 351.918 572.491 351.472C568.966 351.057 566.326 348.039 566.382 344.487L568.383 314.617Z" fill="white"></path> </svg> 