<?xml version="1.0" encoding="UTF-8"?> <svg xmlns="http://www.w3.org/2000/svg" width="40" height="40" viewBox="0 0 40 40" fill="none"> <circle opacity="0.16" cx="20" cy="20" r="20" fill="#515DC8"></circle> <path d="M16.5 12C15.5717 12 14.6815 12.3687 14.0251 13.0251C13.3687 13.6815 13 14.5717 13 15.5C13 16.4283 13.3687 17.3185 14.0251 17.9749C14.6815 18.6313 15.5717 19 16.5 19C17.4283 19 18.3185 18.6313 18.9749 17.9749C19.6313 17.3185 20 16.4283 20 15.5C20 14.5717 19.6313 13.6815 18.9749 13.0251C18.3185 12.3687 17.4283 12 16.5 12ZM25 15C24.2044 15 23.4413 15.3161 22.8787 15.8787C22.3161 16.4413 22 17.2044 22 18C22 18.7956 22.3161 19.5587 22.8787 20.1213C23.4413 20.6839 24.2044 21 25 21C25.7956 21 26.5587 20.6839 27.1213 20.1213C27.6839 19.5587 28 18.7956 28 18C28 17.2044 27.6839 16.4413 27.1213 15.8787C26.5587 15.3161 25.7956 15 25 15ZM16.5 21C13.69 21 11.2395 22.1403 10.0195 22.8203C9.38953 23.1803 9 23.8403 9 24.5703V27C9 27.552 9.448 28 10 28H16C16.552 28 17 27.552 17 27V25.1309C17 23.7109 17.7791 22.3799 19.0391 21.6699C19.1791 21.5899 19.3398 21.5099 19.5098 21.4199C18.5898 21.1699 17.57 21 16.5 21ZM25 22C22.858 22 20.9634 22.8861 20.0234 23.4141C19.3924 23.7701 19 24.4279 19 25.1309V27C19 27.552 19.448 28 20 28H30C30.552 28 31 27.552 31 27V25.1309C31 24.4279 30.6066 23.7701 29.9746 23.4141C29.0356 22.8861 27.142 22 25 22Z" fill="#515DC8"></path> </svg> 