<?xml version="1.0" encoding="UTF-8"?> <svg xmlns="http://www.w3.org/2000/svg" data-name="Layer 1" viewBox="0 0 141.73 141.73"> <defs> <clipPath id="a"> <path fill="none" d="M0 0h141.73v141.73H0z"></path> </clipPath> </defs> <path fill="#edf7fa" d="M0 0h141.73v141.73H0z"></path> <g clip-path="url(#a)"> <path fill="#fbd5c2" d="M58.65 91.86H82.4v23.75H58.65z"></path> <path d="M58.65 103.55a23.08 23.08 0 0 0 23.75 0V89.16H58.65z" fill="#e9b7a3"></path> <path fill="#fbd5c2" d="M70.53 107.66l-32.04 9.99 1.42 87.58H101.14l1.42-87.58-32.03-9.99z"></path> <path d="M89.25 113.43a24.27 24.27 0 0 1-37.45 0l-13.31 4.22 1.42 87.58h61.23l1.42-87.58z" fill="#89c76e"></path> <path d="M94.61 64.44s5.48-4.95 10.21-.65 1.25 20.15-12.28 19.38zM46.44 64.46s-5.48-5-10.21-.66S35 84 48.51 83.18z" fill="#e9b7a3"></path> <path d="M70.72 25.69c-34.38 0-29.49 35.8-26.61 54.32 3.17 20.5 17.7 22.34 17.7 22.34 0 3.38 17.83 3.38 17.83 0 0 0 14.52-1.84 17.7-22.34 2.87-18.52 7.77-54.32-26.62-54.32z" fill="#fbd5c2"></path> <path d="M62.74 69.62a9.37 9.37 0 0 1-7 1.72C52.16 70.89 51 69 51 69c-2.54-3.78.13-7.32 4.35-7.56 3.36-.22 7.24 1.78 7.39 8.18z" fill="#fff"></path> <path d="M73.93 93.29a8.62 8.62 0 0 1-6.76-.29 3.37 3.37 0 0 0 3.33 2.09c2.85.11 3.43-1.8 3.43-1.8z" fill="#e9b7a3"></path> <path d="M81.12 87.11s-8.88 4.83-20.28-.76c0 0 9.29 8.65 20.28.76z" fill="#cf9884"></path> <path d="M78.31 69.62a9.37 9.37 0 0 0 7 1.72C88.89 70.89 90 69 90 69c2.54-3.78-.13-7.32-4.35-7.56-3.31-.22-7.19 1.78-7.34 8.18z" fill="#fff"></path> <path d="M60.77 65.94a3.61 3.61 0 0 0-4.29-2.71 1.87 1.87 0 0 1 .51.95 1.92 1.92 0 0 1-1.52 2.27 2 2 0 0 1-1.79-.52 3.37 3.37 0 0 0 0 1.45 3.62 3.62 0 0 0 4.29 2.71 3.54 3.54 0 0 0 2.8-4.15zM87.43 65.94a3.61 3.61 0 0 0-4.29-2.71 1.89 1.89 0 0 1 .52.95 1.92 1.92 0 0 1-1.52 2.27 2 2 0 0 1-1.79-.52 3.37 3.37 0 0 0 0 1.45 3.62 3.62 0 0 0 4.25 2.72 3.54 3.54 0 0 0 2.83-4.16z" fill="#5a423b"></path> <path d="M50.56 58.66c-1.33-.62 1.75-3.73 8.22-2.14a5.76 5.76 0 0 1 3.34 2.64c-4.76-1.16-11.56-.5-11.56-.5zM90.88 58.66c1.34-.62-1.75-3.73-8.21-2.14a5.72 5.72 0 0 0-3.34 2.64c4.76-1.16 11.55-.5 11.55-.5z" fill="#a45958"></path> <path d="M42.08 37.24S31 42.82 42.09 60c0 0 2.57-13.82 7.95-18.32s-7.96-4.44-7.96-4.44zM99.28 37.24s11.07 5.58 0 22.77c0 0-2.57-13.82-8-18.32s8-4.45 8-4.45z" fill="#8e4e4e"></path> <path d="M42.09 37.23c12.4 21.82 28.14 9.71 42.12 17.45.9-4.23 1.32-6.31-1-10.17Q92.57 56 111.92 54.68c-4.74-2.92-6.78-7.75-8-16.37 3.46-1.28 4.55-2.44 6.57-5.4-12.4 2-15-17.79-33.93-17.79-23.89 0-33.98 15.19-34.47 22.11z" fill="#a45958"></path> <path d="M128.39 139.32l-10.48 23.28-16.39-15.6 1.1-31c7.59.91 25.77 23.32 25.77 23.32zM13.06 139.32l10.48 23.28L39.93 147l-.18-31c-7.6.91-26.69 23.32-26.69 23.32z" fill="#2d53a4"></path> <path d="M13.14 136c2.7 7.56 10.2 15.72 18.88 21.29l-8.32 7.91c-8.7-5.59-16.18-13.77-18.85-21.33zM128.3 136c-2.69 7.56-10.19 15.72-18.87 21.29l8.32 7.91c8.68-5.58 16.18-13.76 18.85-21.32zM102.4 116.05l-10.81-2.24-20.27.25h-1.2l-20.26-.25-10.33 2.24-7.59 96c4.88 7.15 22.39 17.24 38.18 16.63h1.2c15.8.61 33.31-9.48 38.19-16.63z" fill="#4069b2"></path> <path d="M107.49 184.74H96.9v-11.29h9.75l-.19-2.62H96.9v-11.31h8.72l-.19-2.62H96.9v-11.33h7.69l-.2-2.62H96.9v-11.39h6.65l-.2-2.61H96.9v-11.3h5.61l-.11-1.6-4.91-1H44.22l-4.69 1-.13 1.6h5.15V129h-6l-.21 2.61h6.25V143H37.4l-.21 2.62h7.36v11.28H36.3l-.21 2.62h8.46v11.31h-9.36l-.2 2.62h9.56v11.29H34.09L31.94 212a20.77 20.77 0 0 0 2.94 3.31h9.67V222c.78.42 1.57.82 2.38 1.21v-7.91h10.29v11.31h-1.45a45 45 0 0 0 14.35 2h1.2a45.13 45.13 0 0 0 14.38-2h-1.47v-11.3h10.28v7.91l.29-.14c.71-.35 1.41-.7 2.1-1.07v-6.7h9.66a20.39 20.39 0 0 0 3-3.31zm-62.94 28H34.28v-11.45h10.27zm0-14H34.28v-11.38h10.27zm12.67 14H46.93v-11.45h10.29zm0-14H46.93v-11.38h10.29zm0-13.93H46.93v-11.36h10.29zm0-13.91H46.93v-11.38h10.29zm0-13.93H46.93v-11.4h10.29zm0-14H46.93v-11.41h10.29zm0-14H46.93v-11.3h10.29zm24.63 97.67H59.6v-11.33h22.25zm0-13.92H59.6v-11.43h22.25zm0-14H59.6v-11.36h22.25zm0-13.93H59.6v-11.34h22.25zm0-13.91H59.6v-11.36h22.25zm0-13.93H59.6v-11.38h22.25zm0-14H59.6v-11.39h22.25zm0-14H59.6v-11.3h22.25zm12.66 83.75H84.23v-11.41h10.28zm0-14H84.23v-11.34h10.28zm0-13.93H84.23v-11.32h10.28zm0-13.91H84.23v-11.34h10.28zm0-13.93H84.23v-11.36h10.28zm0-14H84.23v-11.37h10.28zm0-14H84.23v-11.3h10.28zm12.66 83.75H96.9v-11.39h10.27zm0-14H96.9v-11.32h10.27z" fill="#385daa"></path> <path d="M83.76 107.66s-3.73 5.45-12.44 6.4h-1.2v114.57h1.21V114.08l7.18 11.7a25.29 25.29 0 0 0 13.08-12zM57.68 107.66l-7.82 6.15a25.3 25.3 0 0 0 13.07 12l7.19-11.72c-8.7-.98-12.44-6.43-12.44-6.43z" fill="#2d53a4"></path> <path d="M93.9 81.55c-5.1 5.19-15.63 2.5-23.19 2.49s-16.15 2.68-22.57-2.8C42 76 42.23 63.08 42 61.23c0 0-3.15 26.22-.77 34.59 2.63 9.28 13.35 20.23 29.43 20.23s26.83-10.91 29.47-20.19c2.37-8.37-.84-34.6-.84-34.6-.41 2.81-.09 14.9-5.39 20.29z" fill="#a45958"></path> <path d="M59.16 88.68a27.35 27.35 0 0 0 4.73 1.68l7.46 2.22 7.74-2a29.73 29.73 0 0 0 4.79-1.33 16.35 16.35 0 0 1-6.3 6.63c-1.78 1-6.37-.4-6.37-.4s-4.73 1.25-6.35.27a14.11 14.11 0 0 1-5.7-7.07z" fill="#2b2a2c"></path> <path d="M71.43 94.89a23.54 23.54 0 0 0-6.57.89A11.37 11.37 0 0 0 71 97.57a12.58 12.58 0 0 0 6.55-1.65 18 18 0 0 0-6.12-1.03z" fill="#d06464"></path> <path d="M79.09 90.61a34.21 34.21 0 0 1-15.2-.25 10.46 10.46 0 0 0 7.23 2.91 11.53 11.53 0 0 0 7.97-2.66z" fill="#fff"></path> <path d="M71 81.24s5.09 2.07 6.34-1.93c1.44-4.37-3.71-9.31-3.71-9.31s3 5.45 1.86 9c-.83 2.31-4.49 2.24-4.49 2.24z" fill="#cf9884"></path> </g> </svg> 