<?xml version="1.0" encoding="UTF-8"?> <svg xmlns="http://www.w3.org/2000/svg" width="80" height="80" viewBox="0 0 80 80" fill="none"> <circle cx="40" cy="40" r="40" fill="#8354B8"></circle> <path d="M50.5608 20.6935C52.8965 21.9705 55.0382 23.6959 56.8526 25.8581C58.6669 28.0203 59.9942 30.4291 60.8462 32.9511M19.1532 47.0484C20.0052 49.5702 21.3324 51.9788 23.1466 54.1408C24.9608 56.3028 27.1023 58.0281 29.4378 59.3051" stroke="#B59BD5" stroke-width="4" stroke-linecap="round"></path> <path fill-rule="evenodd" clip-rule="evenodd" d="M36.6204 25.6094C36.024 24.6797 34.7868 24.4094 33.8571 25.0058C32.9274 25.6021 32.6571 26.8393 33.2535 27.769L39.2636 37.1389C39.2125 37.1838 39.1615 37.2296 39.1105 37.2764L30.7978 27.112C30.0985 26.2569 28.8385 26.1306 27.9834 26.8299C27.1284 27.5292 27.0021 28.7892 27.7014 29.6442L36.5699 40.4883C36.5432 40.5319 36.5167 40.5756 36.4905 40.6192L29.0659 32.9025C28.3 32.1065 27.0339 32.0821 26.238 32.8479C25.442 33.6138 25.4176 34.8799 26.1834 35.6758L34.7191 44.5473C34.6715 44.6943 34.6264 44.8394 34.5834 44.9826L29.8167 40.4412C29.017 39.6792 27.751 39.7099 26.9891 40.5096C26.2272 41.3093 26.2578 42.5753 27.0575 43.3372L35.5758 51.4528C37.2856 53.7023 40.3424 55.2838 43.8736 54.978C48.749 54.5558 50.6937 50.7558 51.1743 47.8003C51.5644 45.4017 51.3055 42.3298 51.0615 39.4346C50.938 37.9689 50.8183 36.5484 50.7885 35.2836C50.8474 34.7734 50.9663 34.3343 51.1058 33.9961C51.2053 33.7546 51.3027 33.5951 51.3699 33.5066C51.3793 33.4943 51.3874 33.4842 51.3941 33.4762C52.3012 32.9394 52.6407 31.7804 52.1486 30.8336C51.6393 29.8535 50.4318 29.4718 49.4517 29.9812C48.4251 30.5147 47.7808 31.5667 47.4078 32.4712C46.9979 33.4654 46.749 34.676 46.749 35.9781C46.749 36.4491 46.7322 36.8857 46.7029 37.3001C46.4485 37.5268 46.159 37.667 45.8169 37.667C45.0249 37.667 44.4832 37.4519 44.0391 37.1754L36.6204 25.6094ZM51.4142 33.4536C51.4166 33.4512 51.4178 33.4501 51.4178 33.4501C51.4179 33.4502 51.4167 33.4514 51.4142 33.4536Z" fill="#EDE7F5"></path> </svg> 